<svg width="20" height="20" viewBox="0 0 20 20" fill="none" xmlns="http://www.w3.org/2000/svg">
<path d="M20 3.24378C20 1.47264 18.5603 0 16.8288 0H3.17121C1.43969 0 0 1.47264 0 3.24378V16.7562C0 18.5274 1.43969 20 3.17121 20H16.7899C18.5214 20 19.9611 18.5274 19.9611 16.7562V3.24378H20ZM19.1829 16.7562C19.1829 18.0896 18.1323 19.1642 16.8288 19.1642H3.17121C1.8677 19.1642 0.817121 18.0896 0.817121 16.7562V3.24378C0.817121 1.91045 1.8677 0.835821 3.17121 0.835821H16.7899C18.0934 0.835821 19.144 1.91045 19.144 3.24378V16.7562H19.1829Z" fill="#71717A"/>
<path d="M0.40856 6.10945C0.40856 6.32836 0.603113 6.52736 0.836576 6.52736H19.0856C19.3191 6.52736 19.5136 6.32836 19.5136 6.10945C19.5136 5.89055 19.3191 5.69154 19.0856 5.69154H0.836576C0.622568 5.67164 0.40856 5.87065 0.40856 6.10945Z" fill="#71717A"/>
<path d="M7.62646 9.83085C7.62646 9.81095 7.607 9.77114 7.607 9.75124C7.58755 9.73134 7.58755 9.69154 7.54864 9.69154L7.49027 9.63184C7.47082 9.63184 7.43191 9.61194 7.41245 9.61194C7.393 9.61194 7.35409 9.59204 7.33463 9.59204H7.15953C7.14008 9.59204 7.10117 9.59204 7.08171 9.61194C7.06226 9.61194 7.02335 9.63184 7.00389 9.63184C6.98444 9.65174 6.94553 9.65174 6.94553 9.69154L6.88716 9.75124C6.88716 9.77114 6.8677 9.81095 6.8677 9.83085C6.8677 9.85075 6.84825 9.89055 6.84825 9.91045V9.99005C6.84825 10.0498 6.84825 10.1095 6.8677 10.1692C6.88716 10.2289 6.92607 10.2886 6.94553 10.3085C6.96498 10.3284 7.02335 10.3682 7.08171 10.3881C7.14008 10.408 7.19844 10.408 7.25681 10.408C7.31517 10.408 7.37354 10.408 7.43191 10.3881C7.49027 10.3682 7.54864 10.3284 7.56809 10.3085C7.64591 10.2289 7.68482 10.1095 7.68482 9.99005V9.91045C7.64591 9.89055 7.62646 9.87065 7.62646 9.83085Z" fill="#71717A"/>
<path d="M7.23735 10.6468C7.15953 10.6468 7.08171 10.6468 6.96498 10.5871C6.88716 10.5473 6.82879 10.5075 6.77043 10.4677C6.71206 10.408 6.67315 10.3483 6.6537 10.2687C6.59533 10.1692 6.59533 10.0697 6.59533 9.99005V9.91045C6.59533 9.85075 6.61479 9.81095 6.63424 9.77114C6.63424 9.73134 6.6537 9.71144 6.6537 9.69154V9.63184L6.73152 9.55224C6.75097 9.51244 6.78988 9.49254 6.82879 9.45274L6.88716 9.39304H6.96498C7.0428 9.35323 7.12062 9.35323 7.14008 9.35323H7.31517C7.37354 9.35323 7.41245 9.37314 7.45136 9.39304C7.49027 9.39304 7.50973 9.41294 7.52918 9.41294H7.58755L7.66537 9.49254C7.70428 9.51244 7.72374 9.55224 7.76265 9.59204L7.82101 9.65174V9.71144C7.82101 9.73134 7.84047 9.75124 7.84047 9.79105C7.85992 9.83085 7.87938 9.87065 7.87938 9.93035V10.01C7.87938 10.209 7.82101 10.3682 7.70428 10.4876C7.64591 10.5473 7.58755 10.5871 7.50973 10.607C7.393 10.6468 7.31517 10.6468 7.23735 10.6468ZM7.08171 10.1493C7.10117 10.1692 7.14008 10.1891 7.15953 10.1891C7.17899 10.1891 7.27626 10.1891 7.29572 10.1891C7.31517 10.1692 7.37354 10.1493 7.37354 10.1493C7.37354 10.1493 7.41245 10.1095 7.41245 10.01V9.95025C7.41245 9.93035 7.393 9.91045 7.393 9.87065C7.393 9.87065 7.393 9.87065 7.393 9.85075L7.35408 9.81095C7.35408 9.81095 7.35409 9.81095 7.33463 9.81095C7.29572 9.81095 7.27626 9.79105 7.25681 9.79105H7.19844L7.17899 9.81095H7.12062L7.08171 9.85075C7.08171 9.85075 7.08171 9.85075 7.08171 9.87065C7.08171 9.91045 7.06226 9.93035 7.06226 9.95025V9.99005C7.06226 10.01 7.06226 10.0498 7.06226 10.0498C7.06226 10.0896 7.08171 10.1294 7.08171 10.1493Z" fill="#71717A"/>
<path d="M10.3891 9.83085C10.3891 9.81095 10.3696 9.77114 10.3696 9.75124C10.3502 9.73134 10.3502 9.69154 10.3113 9.69154C10.2335 9.61194 10.0584 9.55224 9.96109 9.57214C9.94163 9.57214 9.90272 9.57214 9.88327 9.59204C9.86381 9.59204 9.8249 9.61194 9.80545 9.61194C9.78599 9.63184 9.74708 9.63184 9.74708 9.67164L9.66926 9.75124C9.66926 9.77114 9.64981 9.81095 9.64981 9.83085C9.64981 9.85075 9.63035 9.89055 9.63035 9.91045V9.99005C9.63035 10.1095 9.68872 10.209 9.74708 10.3085C9.76654 10.3284 9.8249 10.3682 9.88327 10.3881C9.94163 10.408 10 10.408 10.0584 10.408C10.1167 10.408 10.1751 10.408 10.2335 10.3881C10.2918 10.3682 10.3502 10.3284 10.3696 10.3085C10.4475 10.2289 10.4864 10.1095 10.4864 9.99005V9.91045C10.4086 9.89055 10.3891 9.87065 10.3891 9.83085Z" fill="#71717A"/>
<path d="M10.0389 10.6468C9.96109 10.6468 9.88327 10.6468 9.76654 10.5871C9.68872 10.5473 9.63035 10.5075 9.57198 10.4677L9.55253 10.4279C9.45525 10.2687 9.39689 10.1294 9.39689 9.99005V9.91045C9.39689 9.85075 9.41634 9.81095 9.4358 9.77114C9.4358 9.73134 9.45525 9.71144 9.45525 9.69154V9.63184L9.53307 9.55224C9.55253 9.51244 9.59144 9.49254 9.63035 9.45274L9.68872 9.39304H9.76654C9.8249 9.35323 9.88327 9.35323 9.92218 9.35323C10.0778 9.33333 10.2918 9.37313 10.428 9.49254C10.4669 9.51244 10.5058 9.55224 10.5253 9.59204L10.5837 9.65174V9.71144C10.5837 9.73134 10.6031 9.73134 10.6031 9.75124L10.6615 9.81095V9.99005C10.6615 10.1891 10.6031 10.3483 10.4864 10.4677C10.428 10.5274 10.3697 10.5672 10.2918 10.5871C10.1946 10.6468 10.0973 10.6468 10.0389 10.6468ZM9.88327 10.1692C9.90272 10.1692 9.94163 10.1891 9.96109 10.209C9.98054 10.209 10.0778 10.209 10.0973 10.209C10.1167 10.1891 10.1751 10.1692 10.1751 10.1692C10.1751 10.1692 10.214 10.1294 10.214 10.0299C10.1946 9.99005 10.1751 9.95025 10.1556 9.91045C10.1556 9.91045 10.1556 9.91045 10.1556 9.89055L10.1362 9.87065C10.0973 9.83085 10.0195 9.81095 9.98054 9.81095H9.96109L9.92218 9.85075H9.86381L9.8249 9.89055C9.8249 9.89055 9.8249 9.89055 9.8249 9.91045C9.8249 9.95025 9.80545 9.97015 9.80545 9.99005V10.0299C9.8249 10.0498 9.86381 10.1095 9.88327 10.1692Z" fill="#71717A"/>
<path d="M12.4514 9.69154C12.3735 9.77114 12.3346 9.89055 12.3346 10.0099C12.3346 10.0697 12.3346 10.1294 12.3541 10.1891C12.3735 10.2488 12.4125 10.3085 12.4319 10.3284C12.4514 10.3483 12.5097 10.3881 12.5681 10.408C12.6265 10.4279 12.6848 10.4279 12.7432 10.4279C12.8599 10.4279 12.9572 10.3682 13.0545 10.3085C13.1323 10.2289 13.1712 10.1095 13.1712 9.99005C13.1712 9.87065 13.1128 9.77114 13.0545 9.67164C12.8988 9.55224 12.6265 9.55224 12.4514 9.69154Z" fill="#71717A"/>
<path d="M12.7626 10.6468C12.6848 10.6468 12.607 10.6468 12.4903 10.5871C12.4319 10.5473 12.3541 10.5075 12.2957 10.4677C12.2374 10.408 12.2179 10.3483 12.179 10.2687C12.1206 10.1692 12.1206 10.0697 12.1206 9.99005C12.1206 9.79104 12.179 9.63184 12.2957 9.51244L12.3152 9.49254C12.5681 9.29353 12.9572 9.29353 13.2101 9.49254L13.2296 9.55224L13.249 9.57214C13.3463 9.73134 13.4047 9.87065 13.4047 10.0099C13.4047 10.209 13.3463 10.3682 13.2296 10.4876L13.1907 10.5075C13.035 10.607 12.8988 10.6468 12.7626 10.6468ZM12.6265 10.1493C12.6459 10.1692 12.6848 10.1891 12.7043 10.1891C12.7043 10.1891 12.7432 10.1891 12.7821 10.1891C12.821 10.1891 12.8794 10.1692 12.9377 10.1294C12.9572 10.1095 12.9767 10.0697 12.9767 9.99005C12.9767 9.95025 12.9572 9.89055 12.9183 9.83085C12.8405 9.77114 12.7043 9.79104 12.6265 9.85075C12.607 9.87065 12.5875 9.91045 12.5875 9.99005C12.5875 10.0099 12.5875 10.0498 12.5875 10.0498C12.5875 10.0896 12.607 10.1294 12.6265 10.1493Z" fill="#71717A"/>
<path d="M15.9144 9.83085C15.9144 9.81095 15.8949 9.77114 15.8949 9.75124C15.8755 9.73134 15.8755 9.69154 15.8366 9.69154C15.7004 9.51244 15.3891 9.51244 15.2529 9.69154C15.2335 9.71144 15.2335 9.75124 15.1946 9.75124C15.1946 9.77114 15.1751 9.81095 15.1751 9.83085C15.1751 9.85075 15.1556 9.89055 15.1556 9.91045V9.99005C15.1556 10.1095 15.1751 10.209 15.2724 10.3085C15.3502 10.3881 15.4669 10.4279 15.5837 10.4279C15.642 10.4279 15.7004 10.4279 15.7588 10.408C15.8171 10.3881 15.8755 10.3483 15.8949 10.3284C15.9728 10.2488 16.0117 10.1294 16.0117 10.01V9.93035C15.9339 9.89055 15.9144 9.87065 15.9144 9.83085Z" fill="#71717A"/>
<path d="M15.5642 10.6468C15.3696 10.6468 15.214 10.5871 15.0973 10.4677C14.9805 10.3483 14.9222 10.1891 14.9222 9.99005V9.91045C14.9222 9.85075 14.9416 9.81094 14.9611 9.77114C14.9611 9.73134 14.9805 9.71144 14.9805 9.69154V9.51244H15.1167C15.2335 9.39303 15.3891 9.33333 15.5447 9.33333C15.7004 9.33333 15.856 9.39304 15.9533 9.49254C15.9922 9.51244 16.0117 9.55224 16.0506 9.59204L16.1089 9.65174V9.71144C16.1089 9.73134 16.1284 9.73134 16.1284 9.75124L16.1868 9.81095V9.99005C16.1868 10.1891 16.1284 10.3483 16.0117 10.4677C15.9533 10.5274 15.8949 10.5672 15.8171 10.5871C15.7198 10.6468 15.6226 10.6468 15.5642 10.6468ZM15.3696 9.95025V9.99005C15.3696 10.0896 15.4086 10.1294 15.4086 10.1493C15.428 10.1692 15.4475 10.1891 15.5642 10.1891C15.5837 10.1891 15.6226 10.1891 15.6226 10.1891C15.642 10.1692 15.7004 10.1493 15.7004 10.1493C15.7004 10.1493 15.7393 10.1095 15.7393 10.01C15.7198 9.97015 15.7004 9.93035 15.6809 9.89055L15.642 9.85075C15.6031 9.79104 15.4475 9.79104 15.3891 9.85075C15.3696 9.87065 15.3697 9.89055 15.3502 9.89055C15.3697 9.91045 15.3696 9.93035 15.3696 9.95025Z" fill="#71717A"/>
<path d="M4.68872 12.4975C4.66926 12.4975 4.63035 12.4776 4.6109 12.4776C4.59144 12.4776 4.55253 12.4577 4.53307 12.4577H4.35798C4.33852 12.4577 4.29961 12.4577 4.28016 12.4776C4.2607 12.4776 4.22179 12.4975 4.20233 12.4975C4.18288 12.5174 4.14397 12.5174 4.14397 12.5572L4.0856 12.597C4.0856 12.6169 4.06615 12.6567 4.06615 12.6766C4.06615 12.6965 4.04669 12.7363 4.04669 12.7562V12.8358C4.04669 12.8955 4.04669 12.9552 4.06615 13.0149C4.0856 13.0746 4.12451 13.1343 4.14397 13.1542C4.16342 13.1741 4.22179 13.2139 4.28016 13.2338C4.33852 13.2537 4.39689 13.2537 4.45525 13.2537C4.57198 13.2537 4.66926 13.194 4.76654 13.1343C4.84436 13.0547 4.88327 12.9353 4.88327 12.8159C4.88327 12.6965 4.8249 12.597 4.76654 12.4975C4.74708 12.5174 4.72763 12.4975 4.68872 12.4975Z" fill="#71717A"/>
<path d="M4.45525 13.5124C4.37743 13.5124 4.29961 13.5124 4.18288 13.4527C4.12451 13.4129 4.04669 13.3731 3.98833 13.3333C3.92996 13.2736 3.91051 13.2139 3.8716 13.1343C3.81323 13.0348 3.81323 12.9353 3.81323 12.8557V12.7761C3.81323 12.7164 3.83268 12.6766 3.85214 12.6368C3.85214 12.597 3.8716 12.5771 3.8716 12.5572V12.4975L3.94942 12.4179C3.96887 12.3781 4.00778 12.3582 4.04669 12.3184L4.10506 12.2587H4.18288C4.2607 12.2189 4.33852 12.2189 4.35798 12.2189H4.53307C4.59144 12.2189 4.63035 12.2388 4.66926 12.2587C4.70817 12.2587 4.72763 12.2786 4.74708 12.2786C4.84436 12.2985 4.92218 12.3781 4.96109 12.4577C5.03891 12.597 5.07782 12.7363 5.07782 12.8557C5.07782 13.0547 5.01946 13.2139 4.90272 13.3333L4.86381 13.3532C4.72763 13.4527 4.59144 13.5124 4.45525 13.5124ZM4.29961 13.0149C4.31907 13.0348 4.35798 13.0547 4.37743 13.0547C4.37743 13.0547 4.41634 13.0547 4.45525 13.0547C4.49416 13.0547 4.55253 13.0348 4.6109 12.995C4.63035 12.9751 4.64981 12.9353 4.64981 12.8557C4.64981 12.8159 4.63035 12.7562 4.59144 12.6766C4.59144 12.6766 4.59144 12.6766 4.57198 12.6766C4.53307 12.6766 4.51362 12.6567 4.49416 12.6567H4.39689L4.37743 12.6766H4.31907L4.28016 12.7164C4.28016 12.7164 4.28016 12.7164 4.28016 12.7363C4.28016 12.7761 4.2607 12.796 4.2607 12.8159V12.8557C4.2607 12.8756 4.2607 12.9154 4.2607 12.9154C4.2607 12.9552 4.28016 12.995 4.29961 13.0149Z" fill="#71717A"/>
<path d="M7.62646 12.6567C7.62646 12.6368 7.607 12.597 7.607 12.5771C7.58755 12.5572 7.58755 12.5174 7.54864 12.5174L7.49027 12.4577C7.47082 12.4577 7.43191 12.4378 7.41245 12.4378C7.393 12.4378 7.35409 12.4179 7.33463 12.4179H7.15953C7.14008 12.4179 7.10117 12.4179 7.08171 12.4378C7.06226 12.4378 7.02335 12.4577 7.00389 12.4577C6.98444 12.4776 6.94553 12.4776 6.94553 12.5174L6.88716 12.5771C6.88716 12.597 6.8677 12.6368 6.8677 12.6567C6.8677 12.6766 6.84825 12.7164 6.84825 12.7363V12.8159C6.84825 12.8756 6.84825 12.9353 6.8677 12.995C6.88716 13.0547 6.92607 13.1144 6.94553 13.1343C6.96498 13.1542 7.02335 13.194 7.08171 13.2139C7.14008 13.2338 7.19844 13.2338 7.25681 13.2338C7.31517 13.2338 7.37354 13.2338 7.43191 13.2139C7.49027 13.194 7.54864 13.1542 7.56809 13.1343C7.58755 13.1144 7.62646 13.0547 7.64591 12.995C7.66537 12.9353 7.66537 12.8756 7.66537 12.8159V12.7363C7.64591 12.7164 7.62646 12.6965 7.62646 12.6567Z" fill="#71717A"/>
<path d="M7.23735 13.4726C7.15953 13.4726 7.08171 13.4726 6.96498 13.4129C6.88716 13.3731 6.82879 13.3333 6.77043 13.2935C6.71206 13.2338 6.67315 13.1741 6.6537 13.0945C6.59533 12.995 6.59533 12.8955 6.59533 12.8159V12.7363C6.59533 12.6766 6.61479 12.6368 6.63424 12.597C6.63424 12.5572 6.6537 12.5373 6.6537 12.5174V12.4577L6.73152 12.3781C6.75097 12.3383 6.78988 12.3184 6.82879 12.2786L6.88716 12.2189H6.96498C7.0428 12.1791 7.12062 12.1791 7.14008 12.1791H7.31517C7.37354 12.1791 7.41245 12.199 7.45136 12.2189C7.49027 12.2189 7.50973 12.2388 7.52918 12.2388H7.58755L7.66537 12.3184C7.70428 12.3383 7.72374 12.3781 7.76265 12.4179L7.82101 12.4776V12.5373C7.82101 12.5572 7.84047 12.5771 7.84047 12.6169C7.85992 12.6567 7.87938 12.6965 7.87938 12.7562V12.8358C7.87938 12.9154 7.87938 12.995 7.82101 13.1144C7.7821 13.194 7.74319 13.2537 7.70428 13.3134C7.64591 13.3731 7.58755 13.393 7.50973 13.4328C7.393 13.4726 7.31517 13.4726 7.23735 13.4726ZM7.08171 12.9751C7.10117 12.995 7.14008 13.0149 7.15953 13.0149C7.17899 13.0149 7.27626 13.0149 7.29572 13.0149C7.31517 12.995 7.35409 12.9751 7.37354 12.9751C7.393 12.9552 7.41245 12.9154 7.41245 12.8955C7.41245 12.8955 7.41245 12.8557 7.41245 12.8358V12.796C7.41245 12.7761 7.393 12.7562 7.393 12.7164C7.393 12.7164 7.393 12.7164 7.393 12.6965L7.35408 12.6567C7.35408 12.6567 7.35409 12.6567 7.33463 12.6567C7.29572 12.6567 7.27626 12.6368 7.25681 12.6368H7.19844L7.17899 12.6567H7.12062L7.08171 12.6965C7.08171 12.6965 7.08171 12.6965 7.08171 12.7164C7.08171 12.7562 7.06226 12.7761 7.06226 12.796V12.8358C7.06226 12.8557 7.06226 12.8955 7.06226 12.8955C7.06226 12.9154 7.08171 12.9552 7.08171 12.9751Z" fill="#71717A"/>
<path d="M10.3891 12.6567C10.3891 12.6368 10.3696 12.597 10.3696 12.5771C10.3502 12.5572 10.3502 12.5174 10.3113 12.5174C10.2335 12.4378 10.0584 12.3781 9.96109 12.398C9.94163 12.398 9.90272 12.398 9.88327 12.4179C9.86381 12.4179 9.8249 12.4378 9.80545 12.4378C9.78599 12.4577 9.74708 12.4577 9.74708 12.4975L9.68872 12.5572C9.68872 12.5771 9.66926 12.6169 9.66926 12.6368C9.66926 12.6567 9.64981 12.6965 9.64981 12.7164V12.796C9.64981 12.9154 9.70817 13.0149 9.76654 13.1144C9.78599 13.1343 9.84436 13.1741 9.90272 13.194C9.96109 13.2139 10.0195 13.2139 10.0778 13.2139C10.1946 13.2139 10.2918 13.1542 10.3891 13.0945C10.4669 13.0149 10.5058 12.8955 10.5058 12.7761V12.6965C10.4086 12.7164 10.3891 12.6965 10.3891 12.6567Z" fill="#71717A"/>
<path d="M10.0389 13.4726C9.96109 13.4726 9.88327 13.4726 9.76654 13.4129C9.68872 13.3731 9.63035 13.3333 9.57198 13.2935L9.55253 13.2537C9.45525 13.0945 9.39689 12.9552 9.39689 12.8159V12.7363C9.39689 12.6766 9.41634 12.6368 9.4358 12.597C9.4358 12.5572 9.45525 12.5373 9.45525 12.5174V12.4577L9.53307 12.3781C9.55253 12.3383 9.59144 12.3184 9.63035 12.2786L9.68872 12.2189H9.76654C9.8249 12.1791 9.88327 12.1791 9.92218 12.1791C10.0778 12.1592 10.2918 12.199 10.428 12.3184C10.4669 12.3383 10.5058 12.3781 10.5253 12.4179L10.5837 12.4776V12.5373C10.5837 12.5572 10.6031 12.5572 10.6031 12.5771L10.6615 12.6368V12.8159C10.6615 13.0149 10.6031 13.1741 10.4864 13.2935L10.4475 13.3333C10.3113 13.4328 10.1556 13.4726 10.0389 13.4726ZM9.88327 12.995C9.90272 12.995 9.94163 13.0149 9.96109 13.0348C9.96109 13.0348 10 13.0348 10.0389 13.0348C10.0778 13.0348 10.1362 13.0149 10.1946 12.9751C10.214 12.9552 10.2335 12.9154 10.2335 12.8358C10.214 12.796 10.1946 12.7562 10.1751 12.7164C10.1751 12.7164 10.1751 12.7164 10.1751 12.6965L10.1556 12.6766C10.1167 12.6368 10.0389 12.6169 10 12.6169H9.98054L9.94163 12.6567H9.88327L9.84436 12.6965C9.84436 12.6965 9.84436 12.6965 9.84436 12.7164C9.84436 12.7562 9.8249 12.7761 9.8249 12.796V12.8358C9.8249 12.8756 9.86381 12.9353 9.88327 12.995Z" fill="#71717A"/>
<path d="M12.4514 12.5174L12.393 12.5771C12.393 12.597 12.3735 12.6368 12.3735 12.6567C12.3735 12.6766 12.3541 12.7164 12.3541 12.7363V12.8159C12.3541 12.8756 12.3541 12.9353 12.3735 12.995C12.393 13.0547 12.4319 13.1144 12.4514 13.1343C12.4708 13.1542 12.5292 13.194 12.5875 13.2139C12.6459 13.2338 12.7043 13.2338 12.7626 13.2338C12.821 13.2338 12.8794 13.2338 12.9377 13.2139C12.9961 13.194 13.0545 13.1542 13.0739 13.1343C13.1517 13.0547 13.1907 12.9353 13.1907 12.8159C13.1907 12.6965 13.1323 12.597 13.0739 12.4975C12.8988 12.3781 12.6265 12.3781 12.4514 12.5174Z" fill="#71717A"/>
<path d="M12.7626 13.4726C12.6848 13.4726 12.607 13.4726 12.4903 13.4129C12.4124 13.3731 12.3541 13.3333 12.2957 13.2935C12.2374 13.2338 12.2179 13.1741 12.179 13.0945C12.1206 12.995 12.1206 12.8955 12.1206 12.8159V12.7363C12.1206 12.6766 12.1401 12.6368 12.1595 12.597C12.1595 12.5572 12.179 12.5373 12.179 12.5174V12.4577L12.3152 12.3184C12.5681 12.1194 12.9572 12.1194 13.2101 12.3184L13.249 12.3582C13.3463 12.5174 13.4047 12.6567 13.4047 12.796C13.4047 12.995 13.3463 13.1542 13.2296 13.2736C13.1712 13.3333 13.1128 13.3731 13.035 13.393C12.9183 13.4726 12.8405 13.4726 12.7626 13.4726ZM12.6265 12.9751C12.6459 12.995 12.6848 13.0149 12.7043 13.0149C12.7237 13.0149 12.821 13.0149 12.8405 13.0149C12.8599 12.995 12.9183 12.9751 12.9183 12.9751C12.9183 12.9751 12.9572 12.9353 12.9572 12.8358C12.9572 12.796 12.9377 12.7363 12.8988 12.6766C12.821 12.6169 12.6848 12.6368 12.607 12.6965C12.607 12.6965 12.607 12.6965 12.607 12.7164C12.607 12.7562 12.5875 12.7761 12.5875 12.796V12.8358C12.5875 12.8557 12.5875 12.8955 12.5875 12.8955C12.5875 12.9154 12.607 12.9552 12.6265 12.9751Z" fill="#71717A"/>
<path d="M15.9144 12.6567C15.9144 12.6368 15.8949 12.597 15.8949 12.5771C15.8755 12.5572 15.8755 12.5174 15.8366 12.5174C15.7004 12.3383 15.3891 12.3383 15.2529 12.5174C15.1751 12.597 15.1362 12.7164 15.1362 12.8358C15.1362 12.9552 15.1556 13.0547 15.2529 13.1542C15.3307 13.2338 15.4475 13.2736 15.5642 13.2736C15.6226 13.2736 15.6809 13.2736 15.7393 13.2537C15.7977 13.2338 15.856 13.194 15.8755 13.1741C15.9533 13.0945 15.9922 12.9751 15.9922 12.8557V12.7761C15.9339 12.7164 15.9144 12.6965 15.9144 12.6567Z" fill="#71717A"/>
<path d="M15.5642 13.4726C15.3696 13.4726 15.214 13.4129 15.0973 13.2935C14.9805 13.1741 14.9222 13.0149 14.9222 12.8159C14.9222 12.6368 14.9805 12.4776 15.0973 12.3582C15.214 12.2388 15.3697 12.1592 15.5447 12.1592C15.7004 12.1592 15.856 12.2189 15.9533 12.3184C15.9922 12.3383 16.0117 12.3781 16.0506 12.4179L16.1089 12.4776V12.5373C16.1089 12.5572 16.1284 12.5572 16.1284 12.5771L16.1868 12.6368V12.8159C16.1868 13.0149 16.1284 13.1741 16.0117 13.2935C15.9533 13.3532 15.8949 13.3731 15.8171 13.4129C15.7198 13.4726 15.6226 13.4726 15.5642 13.4726ZM15.5447 12.6169C15.4864 12.6169 15.4475 12.6368 15.428 12.6567L15.4086 12.6766C15.3891 12.6965 15.3696 12.7164 15.3696 12.8358C15.3696 12.9552 15.4086 12.9751 15.4086 12.995C15.428 13.0149 15.4475 13.0348 15.5642 13.0348C15.5837 13.0348 15.6226 13.0348 15.6226 13.0348C15.642 13.0149 15.7004 12.995 15.7004 12.995C15.7004 12.995 15.7393 12.9552 15.7393 12.8557C15.7198 12.8159 15.7004 12.7761 15.6809 12.7363L15.642 12.6965C15.642 12.6368 15.5837 12.6169 15.5447 12.6169Z" fill="#71717A"/>
<path d="M4.16342 15.3433C4.0856 15.4229 4.04669 15.5423 4.04669 15.6617C4.04669 15.7811 4.10506 15.8806 4.16342 15.9801C4.24125 16.0597 4.35798 16.0995 4.47471 16.0995C4.53307 16.0995 4.59144 16.0995 4.64981 16.0796C4.70817 16.0597 4.76654 16.0199 4.78599 16C4.86381 15.9204 4.90272 15.801 4.90272 15.6816C4.90272 15.5622 4.84436 15.4627 4.78599 15.3632C4.61089 15.204 4.33852 15.204 4.16342 15.3433Z" fill="#71717A"/>
<path d="M4.47471 16.2985C4.28016 16.2985 4.12451 16.2388 4.00778 16.1194L3.98833 16.0796C3.89105 15.9204 3.83268 15.7811 3.83268 15.6418C3.83268 15.4428 3.89105 15.2836 4.00778 15.1642L4.02724 15.1443C4.28016 14.9254 4.66926 14.9254 4.92218 15.1443L4.96109 15.1841C5.05837 15.3433 5.11673 15.4826 5.11673 15.6219C5.11673 15.8209 5.05837 15.9801 4.94163 16.0995C4.88327 16.1592 4.8249 16.199 4.74708 16.2189C4.63035 16.2985 4.55253 16.2985 4.47471 16.2985ZM4.33852 15.8209C4.35798 15.8408 4.39689 15.8607 4.47471 15.8607C4.49416 15.8607 4.53307 15.8607 4.55253 15.8607C4.57198 15.8408 4.63035 15.8209 4.63035 15.8209C4.63035 15.8209 4.66926 15.7811 4.66926 15.6816C4.66926 15.6418 4.64981 15.5821 4.61089 15.5224C4.53307 15.4627 4.39689 15.4826 4.31907 15.5423C4.29961 15.5224 4.28016 15.5622 4.28016 15.6617C4.28016 15.7015 4.29961 15.7612 4.33852 15.8209Z" fill="#71717A"/>
<path d="M7.45136 15.3234C7.43191 15.3234 7.393 15.3035 7.37354 15.3035C7.35409 15.3035 7.31517 15.2836 7.29572 15.2836C7.15953 15.2637 7.02335 15.3035 6.90661 15.403C6.82879 15.4826 6.78988 15.602 6.78988 15.7214C6.78988 15.8408 6.84825 15.9403 6.90661 16.0398C6.92607 16.0597 6.98444 16.0995 7.0428 16.1194C7.10117 16.1393 7.15953 16.1393 7.2179 16.1393C7.27626 16.1393 7.33463 16.1393 7.393 16.1194C7.45136 16.0995 7.50973 16.0597 7.52918 16.0398C7.607 15.9602 7.64591 15.8408 7.64591 15.7214C7.64591 15.602 7.58755 15.5025 7.52918 15.403C7.50973 15.3433 7.49027 15.3234 7.45136 15.3234Z" fill="#71717A"/>
<path d="M7.2179 16.3383C7.14008 16.3383 7.06226 16.3383 6.94553 16.2786C6.8677 16.2388 6.80934 16.199 6.75097 16.1592L6.73152 16.1194C6.63424 15.9602 6.57588 15.8209 6.57588 15.6816C6.57588 15.4826 6.63424 15.3234 6.75097 15.204L6.77043 15.1841C6.94552 15.0448 7.14008 15.005 7.31517 15.0249C7.35409 15.0249 7.393 15.0448 7.41245 15.0647C7.45136 15.0647 7.47082 15.0846 7.49027 15.0846C7.58755 15.1045 7.66537 15.1841 7.70428 15.2637C7.7821 15.403 7.82101 15.5423 7.82101 15.6617C7.82101 15.8607 7.76265 16.0199 7.64591 16.1393C7.58755 16.199 7.52918 16.2388 7.45136 16.2587C7.37354 16.3383 7.27626 16.3383 7.2179 16.3383ZM7.08171 15.8408C7.10117 15.8408 7.14008 15.8607 7.15953 15.8806C7.17899 15.8806 7.27626 15.8806 7.29572 15.8806C7.31517 15.8607 7.37354 15.8408 7.37354 15.8408C7.37354 15.8408 7.41245 15.801 7.41245 15.7015C7.41245 15.6617 7.393 15.602 7.35409 15.5224C7.35409 15.5224 7.35409 15.5224 7.33463 15.5224C7.29572 15.5224 7.27626 15.5025 7.25681 15.5025C7.17899 15.4826 7.10117 15.5423 7.06226 15.5622C7.0428 15.5821 7.02335 15.6219 7.02335 15.7015C7.02335 15.7214 7.0428 15.7811 7.08171 15.8408Z" fill="#71717A"/>
<path d="M10.3891 15.4826C10.3891 15.4627 10.3696 15.4229 10.3696 15.403C10.3502 15.3831 10.3502 15.3433 10.3113 15.3433C10.2335 15.2637 10.0584 15.204 9.96109 15.2239C9.94163 15.2239 9.90272 15.2239 9.88327 15.2438C9.86381 15.2438 9.8249 15.2637 9.80545 15.2637C9.74708 15.3234 9.72763 15.3234 9.72763 15.3433L9.66926 15.403C9.66926 15.4229 9.64981 15.4627 9.64981 15.4826C9.64981 15.5025 9.63035 15.5423 9.63035 15.5622V15.6418C9.63035 15.7015 9.63035 15.7612 9.64981 15.8209C9.66926 15.8806 9.70817 15.9403 9.72763 15.9602C9.74708 15.9801 9.80545 16.0199 9.86381 16.0398C9.92218 16.0597 9.98054 16.0597 10.0389 16.0597C10.1556 16.0597 10.2529 16 10.3502 15.9403C10.3696 15.9204 10.4086 15.8607 10.428 15.801C10.4475 15.7413 10.4475 15.6816 10.4475 15.6219V15.5423C10.4086 15.5423 10.3891 15.5224 10.3891 15.4826Z" fill="#71717A"/>
<path d="M10.0389 16.2985C9.96109 16.2985 9.88327 16.2985 9.76654 16.2388C9.68872 16.199 9.63035 16.1592 9.57198 16.1194C9.51362 16.0597 9.47471 16 9.45525 15.9204C9.39689 15.8209 9.39689 15.7214 9.39689 15.6418V15.5622C9.39689 15.5025 9.41634 15.4627 9.4358 15.4229C9.4358 15.3831 9.45525 15.3632 9.45525 15.3433V15.2836L9.53307 15.204C9.55253 15.1642 9.59144 15.1443 9.63035 15.1045L9.68872 15.0448H9.76654C9.8249 15.005 9.88327 15.005 9.92218 15.005C10.0778 14.9851 10.2918 15.0249 10.428 15.1443C10.4669 15.1642 10.5058 15.204 10.5253 15.2438L10.5837 15.3035V15.3632C10.5837 15.3831 10.6031 15.3831 10.6031 15.403L10.6615 15.4627V15.6418C10.6615 15.7214 10.6615 15.801 10.6031 15.9204C10.5642 16 10.5253 16.0597 10.4864 16.1194L10.4475 16.1393C10.3113 16.2587 10.1556 16.2985 10.0389 16.2985ZM9.88327 15.801C9.90272 15.8209 9.94163 15.8408 9.96109 15.8408C9.96109 15.8408 10 15.8408 10.0389 15.8408C10.0778 15.8408 10.1362 15.8209 10.1946 15.7811C10.1946 15.7612 10.214 15.7214 10.2335 15.7015C10.2335 15.7015 10.2335 15.6617 10.2335 15.6418C10.214 15.602 10.1946 15.5622 10.1751 15.5224C10.1751 15.5224 10.1751 15.5224 10.1751 15.5025L10.1556 15.4826C10.1167 15.4428 10.0389 15.4229 10 15.4229H9.98054L9.94163 15.4627H9.88327L9.86381 15.5224C9.86381 15.5224 9.86381 15.5224 9.86381 15.5423C9.86381 15.5821 9.84436 15.602 9.84436 15.6219V15.6617C9.84436 15.6816 9.84436 15.7214 9.84436 15.7214C9.84436 15.7612 9.86381 15.7811 9.88327 15.801Z" fill="#71717A"/>
<path d="M12.4514 15.3433C12.3735 15.4229 12.3346 15.5423 12.3346 15.6617C12.3346 15.7811 12.3541 15.8806 12.4514 15.9801C12.4708 16 12.5292 16.0398 12.5875 16.0597C12.6459 16.0796 12.7043 16.0796 12.7626 16.0796C12.8794 16.0796 12.9767 16.0199 13.0739 15.9602C13.0934 15.9403 13.1323 15.8806 13.1518 15.8209C13.1712 15.7612 13.1712 15.7015 13.1712 15.6418C13.1712 15.5224 13.1128 15.4229 13.0545 15.3234C12.8988 15.204 12.6265 15.204 12.4514 15.3433Z" fill="#71717A"/>
<path d="M12.7626 16.2985C12.6848 16.2985 12.607 16.2985 12.4903 16.2388C12.4124 16.199 12.3541 16.1592 12.2957 16.1194C12.179 16 12.1206 15.8408 12.1206 15.6418C12.1206 15.4428 12.179 15.2836 12.2957 15.1642L12.3152 15.1443C12.5681 14.9254 12.9572 14.9254 13.2101 15.1443L13.249 15.1841C13.3463 15.3433 13.4047 15.4826 13.4047 15.6219C13.4047 15.7015 13.4047 15.7811 13.3463 15.9005C13.3074 15.9801 13.2685 16.0398 13.2296 16.0995L13.1907 16.1194C13.035 16.2587 12.8988 16.2985 12.7626 16.2985ZM12.607 15.5025C12.5875 15.5224 12.5681 15.5622 12.5681 15.6418C12.5681 15.7413 12.607 15.7811 12.607 15.801C12.607 15.801 12.6654 15.8209 12.6848 15.8408C12.6848 15.8408 12.7237 15.8408 12.7432 15.8408C12.7821 15.8408 12.8405 15.8209 12.8988 15.7811C12.8988 15.7612 12.9183 15.7214 12.9377 15.7015C12.9377 15.7015 12.9377 15.6617 12.9377 15.6219C12.9377 15.5821 12.9183 15.5224 12.8794 15.4627C12.821 15.4428 12.6848 15.4428 12.607 15.5025Z" fill="#71717A"/>
</svg>
