<svg width="23" height="21" viewBox="0 0 23 21" fill="none" xmlns="http://www.w3.org/2000/svg">
<path fill-rule="evenodd" clip-rule="evenodd" d="M4.22707 3.35809C4.22707 1.64517 5.55463 0.203613 7.24144 0.203613C8.67168 0.203613 9.82851 1.23826 10.1586 2.58723H18.6502C20.9527 2.58723 22.7763 4.55246 22.7763 6.91546C22.7763 9.15707 21.2075 11.1067 19.005 11.2368C18.9224 11.2578 18.8495 11.2617 18.8041 11.2617H4.35077C2.90745 11.2617 1.72064 12.4747 1.72064 14.0663C1.72064 15.6574 2.92282 16.8677 4.34555 16.8528L4.35077 16.8528L9.7224 16.8528L8.7143 15.7885C8.55236 15.6484 8.48979 15.4585 8.46535 15.3553L8.46274 15.3442L8.46063 15.3331C8.4214 15.1261 8.45259 14.8776 8.6402 14.6795C8.7587 14.5544 8.95049 14.4331 9.19136 14.4331C9.43222 14.4331 9.62401 14.5544 9.74251 14.6795L9.77541 14.7143L9.77672 14.7156L12.0345 17.0812C12.3198 17.3824 12.3198 17.8469 12.0345 18.1481L9.77672 20.5317C9.48702 20.8375 9.02401 20.8479 8.72259 20.5628C8.50087 20.3763 8.4861 20.1051 8.4861 20.0073C8.4861 19.8293 8.53809 19.6448 8.69152 19.4829L9.7224 18.3945H4.35077C2.0482 18.3945 0.224609 16.4293 0.224609 14.0663C0.224609 11.6868 2.04671 9.72002 4.35077 9.72002H4.35202L18.6009 9.75562C18.6702 9.74104 18.7304 9.73807 18.7699 9.73807C20.1887 9.73807 21.2803 8.55177 21.2803 6.93352C21.2803 5.34188 20.0935 4.12896 18.6502 4.12896H10.1586C9.82851 5.47793 8.67168 6.51257 7.24144 6.51257C5.55463 6.51257 4.22707 5.07102 4.22707 3.35809ZM7.24144 1.72729C6.43099 1.72729 5.74021 2.41654 5.74021 3.34004C5.74021 4.26354 6.43099 4.95279 7.24144 4.95279C8.05189 4.95279 8.74267 4.26354 8.74267 3.34004C8.74267 2.41654 8.05189 1.72729 7.24144 1.72729ZM12.7451 17.6417C12.7451 15.9288 14.0727 14.4872 15.7595 14.4872C17.4463 14.4872 18.7739 15.9288 18.7739 17.6417C18.7739 19.3546 17.4463 20.7962 15.7595 20.7962C14.0727 20.7962 12.7451 19.3547 12.7451 17.6417ZM15.7595 16.0109C14.9517 16.0109 14.2583 16.7154 14.2583 17.6237C14.2583 18.5472 14.9491 19.2364 15.7595 19.2364C16.57 19.2364 17.2607 18.5472 17.2607 17.6237C17.2607 16.7002 16.57 16.0109 15.7595 16.0109Z" fill="#71717A"/>
</svg>
