<svg width="26" height="26" viewBox="0 0 26 26" fill="none" xmlns="http://www.w3.org/2000/svg">
<path d="M25.8546 9.51118C25.7508 9.40735 25.6262 9.36581 25.4808 9.36581H23.4042V1.03834C23.4042 0.768371 23.3003 0.498403 23.0927 0.311502C22.9058 0.103834 22.6358 0 22.3658 0H3.63419C3.36422 0 3.09425 0.103834 2.90735 0.311502C2.69968 0.498403 2.59585 0.768371 2.59585 1.03834V9.36581H0.519169C0.228435 9.36581 0 9.59425 0 9.88498V14.0383C0 14.1837 0.0623003 14.3083 0.145367 14.4121C0.228435 14.516 0.373802 14.5575 0.519169 14.5575H2.59585V19.23C2.59585 19.3754 2.65815 19.5 2.76198 19.6038C2.65815 19.8115 2.59585 20.0399 2.59585 20.2684V21.3067C2.59585 21.722 2.76198 22.1166 3.05272 22.4073C3.34345 22.6981 3.73802 22.8642 4.15335 22.8642V24.4217C4.15335 24.8371 4.31949 25.2316 4.61022 25.5224C4.90096 25.8131 5.29553 25.9792 5.71086 25.9792H7.78754C8.20288 25.9792 8.59744 25.8131 8.88818 25.5224C9.17891 25.2316 9.34505 24.8371 9.34505 24.4217V22.8642H16.6342V24.4217C16.6342 24.8371 16.8003 25.2316 17.0911 25.5224C17.3818 25.8131 17.7764 25.9792 18.1917 25.9792H20.2684C20.6837 25.9792 21.0783 25.8131 21.369 25.5224C21.6597 25.2316 21.8259 24.8371 21.8259 24.4217V22.8642C22.2412 22.8642 22.6358 22.6981 22.9265 22.4073C23.2173 22.1166 23.3834 21.722 23.3834 21.3067V20.2684C23.3834 20.0399 23.3211 19.8115 23.2173 19.6038C23.3211 19.5 23.3834 19.3754 23.3834 19.23V14.5575H25.4601C25.6054 14.5575 25.73 14.4952 25.8339 14.4121C25.9377 14.3291 25.9792 14.1837 25.9792 14.0383V9.88498C26 9.73962 25.9377 9.61502 25.8546 9.51118ZM2.59585 13.5192H1.03834V10.4042H2.59585V13.5192ZM3.63419 15.0144L4.15335 15.3674V18.7316H3.63419V15.0144ZM8.32748 24.4425C8.32748 24.7332 8.09904 24.9617 7.80831 24.9617H5.73163C5.44089 24.9617 5.21246 24.7332 5.21246 24.4425V22.885H8.32748V24.4425ZM20.8083 24.4425C20.8083 24.7332 20.5799 24.9617 20.2891 24.9617H18.2125C17.9217 24.9617 17.6933 24.7332 17.6933 24.4425V22.885H20.8083V24.4425ZM22.3658 21.3275C22.3658 21.6182 22.1374 21.8466 21.8466 21.8466H4.15335C3.86262 21.8466 3.63419 21.6182 3.63419 21.3275V20.2891C3.63419 19.9984 3.86262 19.77 4.15335 19.77H21.8259C22.1166 19.77 22.345 19.9984 22.345 20.2891V21.3275H22.3658ZM20.2891 15.5958C20.1438 15.5958 20.0192 15.6581 19.9153 15.7412L18.877 16.7796C18.7732 16.8834 18.7316 17.008 18.7316 17.1534V18.7109H7.28914V17.1534C7.28914 17.008 7.22684 16.8834 7.14377 16.7796L6.10543 15.7412C6.0016 15.6374 5.877 15.5958 5.73163 15.5958H5.19169V13.8514H20.7875V15.5958H20.2891ZM20.8083 16.6342V18.7109H19.77V17.361L20.4968 16.6342H20.8083ZM5.19169 16.6342H5.5032L6.23003 17.361V18.7109H5.19169V16.6342ZM20.8083 12.8131H5.19169V6.76997C5.19169 6.35463 5.35783 5.96006 5.64856 5.66933C5.9393 5.37859 6.33387 5.21246 6.7492 5.21246H19.23C19.6454 5.21246 20.0399 5.37859 20.3307 5.66933C20.6214 5.96006 20.7875 6.35463 20.7875 6.76997V12.8131H20.8083ZM22.3658 18.7109H21.8466V15.3674L22.3658 15.0144V18.7109ZM22.3658 13.7684L21.8466 14.1214V6.76997C21.8466 6.08466 21.5767 5.42013 21.0783 4.94249C20.5799 4.44409 19.9361 4.15335 19.23 4.15335H6.76997C6.08466 4.15335 5.42013 4.42332 4.94249 4.92173C4.46486 5.39936 4.17412 6.0639 4.17412 6.7492V14.1006L3.65495 13.7476V1.03834H22.3658V13.7684ZM24.9617 13.5192H23.4042V10.4042H24.9617V13.5192Z" fill="#71717A"/>
</svg>
