<svg width="25" height="25" viewBox="0 0 25 25" fill="none" xmlns="http://www.w3.org/2000/svg">
<path d="M12.5 25C19.4079 25 25 19.378 25 12.5C25 5.62201 19.4079 0 12.5 0C5.62201 0 0 5.62201 0 12.5C0 19.4079 5.62201 25 12.5 25ZM12.5 1.52512C18.5706 1.52512 23.5048 6.45933 23.5048 12.5299C23.5048 18.6005 18.5706 23.5347 12.5 23.5347C6.42943 23.5347 1.49522 18.6005 1.49522 12.5299C1.52512 6.42943 6.42943 1.52512 12.5 1.52512Z" fill="#71717A"/>
<path d="M10.766 15.0717C11.0351 15.3408 11.3342 15.4604 11.6631 15.4604C11.9921 15.4604 12.321 15.3408 12.5602 15.0717L16.7767 10.8552C17.0758 10.5561 17.0758 10.1076 16.7767 9.80851C16.4777 9.50947 16.0291 9.50947 15.7301 9.80851L11.6332 13.8157L10.0483 12.2308C9.74923 11.9317 9.30067 11.9317 9.00163 12.2308C8.70258 12.5298 8.70258 12.9784 9.00163 13.2774L10.766 15.0717Z" fill="#71717A"/>
</svg>
