<svg width="18" height="25" viewBox="0 0 18 25" fill="none" xmlns="http://www.w3.org/2000/svg">
<path d="M8.98906 0C4.0243 0 0 3.93162 0 8.78205C0 10.4274 0.459295 12.0085 1.33414 13.3974L8.46416 24.6368C8.59538 24.8504 8.83597 24.9786 9.09842 24.9786C9.36087 24.9786 9.60146 24.8504 9.73269 24.6154L16.6877 13.2692C17.5188 11.9017 17.9563 10.3632 17.9563 8.76068C18 3.93162 13.9538 0 8.98906 0ZM15.4411 12.5427L9.09842 22.8632L2.62454 12.6282C1.90279 11.4744 1.48724 10.1496 1.48724 8.78205C1.48724 4.74359 4.85541 1.45299 8.98906 1.45299C13.1227 1.45299 16.4909 4.74359 16.4909 8.78205C16.4909 10.1068 16.1191 11.4103 15.4411 12.5427Z" fill="#71717A"/>
<path d="M8.98984 4.40161C6.5184 4.40161 4.48438 6.36742 4.48438 8.80332C4.48438 11.2179 6.47465 13.205 8.98984 13.205C11.5269 13.205 13.4953 11.1965 13.4953 8.80332C13.4953 6.36742 11.4832 4.40161 8.98984 4.40161ZM8.98984 11.7307C7.32763 11.7307 5.97162 10.4059 5.97162 8.78195C5.97162 7.15802 7.32763 5.83323 8.98984 5.83323C10.6521 5.83323 11.9862 7.15802 11.9862 8.78195C12.0081 10.3845 10.6739 11.7307 8.98984 11.7307Z" fill="#71717A"/>
</svg>
