<svg width="20" height="20" viewBox="0 0 20 20" fill="none" xmlns="http://www.w3.org/2000/svg">
<path fill-rule="evenodd" clip-rule="evenodd" d="M3.27666 9.09693C5.56117 11.8891 8.1185 14.4464 10.9107 16.731L11.6304 17.3198C12.9227 18.3771 14.8059 18.2832 15.9865 17.1026L17.8463 15.2428L14.3107 11.7073L11.6591 14.359L5.63806 8.33794L8.29854 5.69512L4.76478 2.16136L2.90506 4.02109C1.72441 5.20174 1.63048 7.08494 2.68779 8.37721L3.27666 9.09693ZM9.96083 17.8919C7.09144 15.5442 4.4634 12.9162 2.11572 10.0468L1.52685 9.32706C-0.0184464 7.43836 0.11883 4.68599 1.8444 2.96043L4.76478 0.0400391L10.4234 5.69866L7.76292 8.34148L11.6591 12.2376L14.3107 9.58598L19.9676 15.2428L17.0472 18.1632C15.3216 19.8888 12.5693 20.0261 10.6806 18.4808L9.96083 17.8919Z" fill="#71717A"/>
</svg>
