<svg width="36" height="36" viewBox="0 0 36 36" fill="none" xmlns="http://www.w3.org/2000/svg">
<path d="M18 0C8.05334 0 0 8.05333 0 18C0 27.9467 8.05334 36 18 36C27.9467 36 36 27.9467 36 18C36 8.05333 27.9467 0 18 0ZM26.7733 11.44C26.6667 13.0933 23.6 25.44 23.6 25.44C23.6 25.44 23.4133 26.16 22.7467 26.1867C22.5067 26.1867 22.2133 26.16 21.8667 25.84C21.1733 25.2533 19.5733 24.1067 18.08 23.0667C17.6267 23.44 16.72 24.2133 15.8133 25.1467C14.5067 26.4533 14.6667 25.1467 14.6667 25.1467L15.0667 20.8533C15.0933 20.8 15.12 20.7733 15.12 20.7733C15.12 20.7733 22.88 13.8667 23.0933 13.1467C23.12 13.0933 23.04 13.0667 22.96 13.0933C22.4533 13.28 13.52 18.9333 12.5333 19.5467C12.48 19.5733 12.32 19.5467 12.32 19.5467L7.97333 18.1333C7.97333 18.1333 7.46667 17.92 7.62667 17.44C7.65333 17.3333 7.73334 17.2533 7.94667 17.12C8.90667 16.4533 25.7333 10.4 25.7333 10.4C25.7333 10.4 26.2133 10.24 26.48 10.3467C26.6133 10.4 26.6933 10.4533 26.7467 10.64C26.7733 10.72 26.7733 10.88 26.7733 11.0133C26.8 11.1733 26.8 11.28 26.7733 11.44Z" fill="#90908F"/>
</svg>
