<svg width="25" height="25" viewBox="0 0 25 25" fill="none" xmlns="http://www.w3.org/2000/svg">
<path d="M12.5 25C19.4079 25 25 19.378 25 12.5C25 5.62201 19.4079 0 12.5 0C5.62201 0 0 5.62201 0 12.5C0 19.4079 5.62201 25 12.5 25ZM12.5 1.52512C18.5706 1.52512 23.5048 6.45933 23.5048 12.5299C23.5048 18.6005 18.5706 23.5347 12.5 23.5347C6.42943 23.5347 1.49522 18.6005 1.49522 12.5299C1.52512 6.42943 6.42943 1.52512 12.5 1.52512Z" fill="#71717A"/>
<path d="M15.8786 16.1185C15.6992 16.1185 15.5198 16.0587 15.3702 15.9391L11.9911 13.3972C11.7817 13.2477 11.6621 12.9785 11.6621 12.7094V7.68547C11.6621 7.207 12.0509 6.84814 12.4994 6.84814C12.9779 6.84814 13.3368 7.2369 13.3368 7.68547V12.3206L16.387 14.5934C16.7458 14.8625 16.8356 15.4008 16.5664 15.7596C16.387 15.9989 16.1179 16.1185 15.8786 16.1185Z" fill="#71717A"/>
</svg>
