<svg width="36" height="36" viewBox="0 0 36 36" fill="none" xmlns="http://www.w3.org/2000/svg">
<path d="M18 0C8.05333 0 0 8.05333 0 18C0 27.9467 8.05333 36 18 36C27.9467 36 36 27.9467 36 18C36 8.05333 27.9467 0 18 0ZM28.32 24.6667H25.8667C24.9333 24.6667 24.6667 23.92 22.9867 22.24C21.52 20.8267 20.9067 20.6667 20.5333 20.6667C20.0267 20.6667 19.8933 20.8 19.8933 21.52V23.7333C19.8933 24.32 19.7067 24.6933 18.1333 24.6933C15.5467 24.6933 12.6667 23.12 10.64 20.1867C7.57333 15.92 6.74667 12.6933 6.74667 12.0267C6.74667 11.6533 6.88 11.3333 7.6 11.3333H10.0533C10.6933 11.3333 10.9067 11.6267 11.1467 12.2667C12.3733 15.7867 14.4 18.8267 15.2267 18.8267C15.5467 18.8267 15.68 18.6933 15.68 17.8933V14.2933C15.5733 12.64 14.6933 12.5067 14.6933 11.8933C14.6933 11.6267 14.9333 11.3333 15.3333 11.3333H19.2C19.7333 11.3333 19.8933 11.6 19.8933 12.24V17.12C19.8933 17.6533 20.1333 17.8133 20.2667 17.8133C20.5867 17.8133 20.8267 17.6267 21.4133 17.0667C23.2 15.0933 24.4267 12.0533 24.4267 12.0533C24.5867 11.68 24.8533 11.36 25.4933 11.36H27.9467C28.6933 11.36 28.8533 11.7333 28.6933 12.2667C28.4 13.7067 25.3867 17.92 25.3867 17.9467C25.12 18.3467 25.0133 18.56 25.3867 19.04C25.6267 19.4133 26.48 20.1333 27.0667 20.8267C28.1333 22.0267 28.9067 23.0133 29.1467 23.7067C29.3867 24.32 29.04 24.6667 28.32 24.6667Z" fill="#90908F"/>
</svg>
