<svg width="340" height="122" viewBox="0 0 340 122" fill="none" xmlns="http://www.w3.org/2000/svg">
<path d="M59.4697 121.46H69.2109V97.583H84.958V88.7207H69.2109V15.625H54.5625C31.1982 48.3643 17.3555 69.0918 5.85645 88.4277V97.583H59.4697V121.46ZM15.9639 88.4277C26.5107 71.2891 39.8408 51.3672 59.3232 24.4141H59.4697V88.7207H15.9639V88.4277Z" fill="#FCC10A"/>
<path d="M287.302 121.46H297.043V97.583H312.79V88.7207H297.043V15.625H282.395C259.03 48.3643 245.188 69.0918 233.688 88.4277V97.583H287.302V121.46ZM243.796 88.4277C254.343 71.2891 267.673 51.3672 287.155 24.4141H287.302V88.7207H243.796V88.4277Z" fill="#FCC10A"/>
<circle cx="164.523" cy="61.46" r="60.5" fill="#FCC10A"/>
<g clip-path="url(#clip0_742_5195)">
<path d="M186.822 86.9599C184.212 86.9599 182.04 85.0043 181.78 82.4059L181.698 81.6811H165.027L164.945 82.4059C164.672 85.0043 162.513 86.9599 159.903 86.9599C157.293 86.9599 155.12 85.0043 154.861 82.4059L154.779 81.6811H149.422L149.34 82.4059C149.067 85.0043 146.908 86.9599 144.298 86.9599C141.688 86.9599 139.515 85.0043 139.256 82.4059L139.174 81.6811H136.031C135.662 81.6811 135.375 81.3802 135.375 81.0246V76.5663C135.375 76.1971 135.676 75.9099 136.031 75.9099H175.508V57.01C175.508 56.6407 175.809 56.3535 176.164 56.3535C176.451 56.3535 176.71 56.545 176.792 56.8322L176.956 57.4202H189.555C189.801 57.4202 190.02 57.557 190.143 57.7758L196.975 70.5763L197.44 71.4653C197.494 71.561 197.522 71.6704 197.522 71.7798V81.0246C197.522 81.3939 197.221 81.6811 196.866 81.6811H191.946L191.864 82.4059C191.605 85.0043 189.432 86.9599 186.822 86.9599ZM186.822 78.1254C184.745 78.1254 183.064 79.8075 183.064 81.8862C183.064 83.9649 184.745 85.647 186.822 85.647C187.82 85.647 188.763 85.2504 189.473 84.5393C190.184 83.8282 190.58 82.8845 190.58 81.8862C190.58 79.8075 188.899 78.1254 186.822 78.1254ZM159.903 78.1254C157.826 78.1254 156.145 79.8075 156.145 81.8862C156.145 83.9649 157.826 85.647 159.903 85.647C161.966 85.647 163.661 83.9649 163.661 81.8862C163.661 79.8075 161.98 78.1254 159.903 78.1254ZM144.298 78.1254C142.221 78.1254 140.54 79.8075 140.54 81.8862C140.54 83.9649 142.221 85.647 144.298 85.647C146.361 85.647 148.056 83.9649 148.056 81.8862C148.056 79.8075 146.375 78.1254 144.298 78.1254ZM163.729 78.563C164.071 78.9596 164.358 79.3972 164.563 79.8759L164.781 80.3819L165.341 80.3545C165.369 80.3545 165.396 80.3545 165.423 80.3545H175.522V77.2091H162.568L163.729 78.563ZM190.853 80.3545H192.233H196.223V72.532H182.422C182.053 72.532 181.766 72.2311 181.766 71.8755V64.641C181.766 64.2718 182.067 63.9846 182.422 63.9846H192.712C193.081 63.9846 193.368 64.2855 193.368 64.641C193.368 64.9966 193.067 65.2975 192.712 65.2975H183.078V71.2054H195.841L189.173 58.7194H176.833V80.3408H181.958L182.176 79.8485C182.982 77.9886 184.814 76.7851 186.822 76.7851C188.708 76.7851 190.894 77.9339 191.769 80.4092L190.853 80.3545ZM148.124 78.563C148.466 78.9596 148.753 79.3972 148.958 79.8759L149.176 80.3682H155.052L155.271 79.8759C155.476 79.4109 155.749 78.9733 156.104 78.563L157.266 77.2091H146.963L148.124 78.563ZM136.7 80.3545H139.433L139.652 79.8622C139.857 79.3835 140.13 78.9459 140.486 78.5493L141.661 77.1954H136.7V80.3545Z" fill="white"/>
<path d="M132.179 71.52C131.81 71.52 131.523 71.2191 131.523 70.8636V46.6164C131.523 46.2608 131.824 45.96 132.179 45.96H170.577C170.946 45.96 171.233 46.2608 171.233 46.6164V70.8636C171.233 71.2328 170.932 71.52 170.577 71.52H132.179ZM132.835 70.2071H169.921V47.2728H132.835V70.2071Z" fill="white"/>
<path d="M138.945 65.1196C138.767 65.1196 138.603 65.0512 138.48 64.9282C138.357 64.8051 138.289 64.641 138.289 64.4632V53.0165C138.289 52.6473 138.59 52.3601 138.945 52.3601C139.314 52.3601 139.601 52.661 139.601 53.0165V64.4632C139.601 64.8187 139.314 65.1196 138.945 65.1196Z" fill="white"/>
<path d="M145.16 65.1196C144.982 65.1196 144.818 65.0512 144.695 64.9282C144.572 64.8051 144.504 64.641 144.504 64.4632V53.0165C144.504 52.6473 144.805 52.3601 145.16 52.3601C145.515 52.3601 145.816 52.661 145.816 53.0165V64.4632C145.816 64.8187 145.529 65.1196 145.16 65.1196Z" fill="white"/>
<path d="M151.379 65.1196C151.201 65.1196 151.037 65.0512 150.914 64.9282C150.791 64.8051 150.723 64.641 150.723 64.4632V53.0165C150.723 52.6473 151.023 52.3601 151.379 52.3601C151.748 52.3601 152.034 52.661 152.034 53.0165V64.4632C152.034 64.8187 151.748 65.1196 151.379 65.1196Z" fill="white"/>
<path d="M157.597 65.1196C157.42 65.1196 157.256 65.0512 157.133 64.9282C157.01 64.8051 156.941 64.641 156.941 64.4632V53.0165C156.941 52.6473 157.242 52.3601 157.597 52.3601C157.966 52.3601 158.253 52.661 158.253 53.0165V64.4632C158.253 64.8187 157.966 65.1196 157.597 65.1196Z" fill="white"/>
<path d="M163.812 65.1196C163.443 65.1196 163.156 64.8187 163.156 64.4632V53.0165C163.156 52.6473 163.457 52.3601 163.812 52.3601C164.181 52.3601 164.468 52.661 164.468 53.0165V64.4632C164.482 64.8187 164.181 65.1196 163.812 65.1196Z" fill="white"/>
<path d="M144.232 83.1035C144.903 83.1035 145.448 82.5585 145.448 81.8863C145.448 81.2141 144.903 80.6692 144.232 80.6692C143.56 80.6692 143.016 81.2141 143.016 81.8863C143.016 82.5585 143.56 83.1035 144.232 83.1035Z" fill="white"/>
<path d="M159.849 83.1035C160.521 83.1035 161.065 82.5585 161.065 81.8863C161.065 81.2141 160.521 80.6692 159.849 80.6692C159.177 80.6692 158.633 81.2141 158.633 81.8863C158.633 82.5585 159.177 83.1035 159.849 83.1035Z" fill="white"/>
<path d="M186.771 83.1035C187.442 83.1035 187.987 82.5585 187.987 81.8863C187.987 81.2141 187.442 80.6692 186.771 80.6692C186.099 80.6692 185.555 81.2141 185.555 81.8863C185.555 82.5585 186.099 83.1035 186.771 83.1035Z" fill="white"/>
</g>
<line x1="107.832" y1="93" x2="224.025" y2="93" stroke="white" stroke-width="2" stroke-linecap="round" stroke-dasharray="4 4"/>
<defs>
<clipPath id="clip0_742_5195">
<rect width="66" height="41" fill="white" transform="translate(131.523 45.96)"/>
</clipPath>
</defs>
</svg>
