<svg width="58" height="40" viewBox="0 0 58 40" fill="none" xmlns="http://www.w3.org/2000/svg">
<path d="M13.8861 32.5961H12.552C12.4914 32.5961 11.885 31.2718 10.7329 28.5631C10.6116 28.2621 10.0052 26.9378 8.91374 24.4698C6.67013 29.7067 5.45736 32.4155 5.33609 32.5961H4.00204H3.94141C6.67013 26.3961 8.12545 23.1456 8.24672 22.9048H9.6414C9.70204 22.9048 10.0052 23.5669 10.551 24.9514C10.6723 25.1922 11.8244 27.7203 13.8861 32.5961Z" fill="#616160"/>
<path d="M15.2208 31.2717H16.4942C16.5548 31.2717 16.5548 31.2717 16.5548 31.3319V32.5358C16.5548 32.596 16.5548 32.596 16.4942 32.596H15.2208C15.1602 32.596 15.1602 32.596 15.1602 32.5358L15.2208 31.2717Z" fill="#616160"/>
<path d="M21.3443 22.9048H21.7082C23.2241 22.9048 24.4975 23.6271 25.589 25.0116C26.1348 25.9145 26.3773 26.7572 26.3773 27.5398V27.9009C26.3773 29.3456 25.7103 30.6097 24.3156 31.7534C23.406 32.3553 22.4358 32.6563 21.5263 32.6563C20.0709 32.6563 18.7975 32.0543 17.7061 30.8504C17.7061 30.8504 18.0092 30.4893 18.6763 29.8873H18.7975C19.5252 30.7902 20.4348 31.2718 21.5263 31.2718C22.9816 31.2718 24.0731 30.5495 24.8007 29.1048L24.9826 28.5029H21.3443C21.2837 28.5029 21.2837 28.5029 21.2837 28.4427V27.1184C21.2837 27.0582 21.2837 27.0582 21.3443 27.0582H24.9826C24.7401 26.1553 24.3156 25.4931 23.7699 25.0718C23.1029 24.53 22.4358 24.2893 21.7688 24.2893H21.405C20.4348 24.2893 19.5858 24.7708 18.7975 25.6737C18.7975 25.6737 18.4337 25.3728 17.8273 24.7106C18.3731 23.9281 19.2826 23.3863 20.5561 23.0252C20.738 22.9048 21.0412 22.9048 21.3443 22.9048Z" fill="#616160"/>
<path d="M27.711 31.2717H28.9844C29.0451 31.2717 29.0451 31.2717 29.0451 31.3319V32.5358C29.0451 32.596 29.0451 32.596 28.9844 32.596H27.711C27.6504 32.596 27.6504 32.596 27.6504 32.5358L27.711 31.2717C27.6504 31.2717 27.6504 31.2717 27.711 31.2717Z" fill="#616160"/>
<path d="M33.1685 32.5961V24.1689H30.1973V22.9048H37.7164V24.2291H34.7451V32.6563H33.1685V32.5961Z" fill="#616160"/>
<path d="M38.9903 31.2717H40.2637C40.3244 31.2717 40.3244 31.2717 40.3244 31.3319V32.5358C40.3244 32.596 40.3244 32.596 40.2637 32.596H38.9903C38.9297 32.596 38.9297 32.596 38.9297 32.5358L38.9903 31.2717C38.9297 31.2717 38.9297 31.2717 38.9903 31.2717Z" fill="#616160"/>
<path d="M46.1457 22.9048H46.6308C47.8436 22.9048 49.0563 23.5067 50.1478 24.6504C50.8755 25.6737 51.2393 26.6368 51.2393 27.5398V28.0213C51.2393 29.2252 50.6329 30.4291 49.4808 31.5126C48.45 32.2349 47.4798 32.5961 46.5702 32.5961H46.0851C44.8723 32.5961 43.6595 31.9941 42.568 30.8504C41.8404 29.8271 41.4766 28.864 41.4766 27.9611V27.4796C41.4766 26.2757 42.0829 25.0718 43.2351 23.9883C44.2053 23.266 45.1755 22.9048 46.1457 22.9048ZM42.9319 27.5999V27.7203V27.7805V27.9009C42.9319 28.9242 43.417 29.7669 44.3266 30.5495C44.9329 30.9708 45.5393 31.2116 46.2063 31.2116H46.5702C47.601 31.2116 48.45 30.7301 49.2383 29.8271C49.6627 29.2252 49.9053 28.6233 49.9053 27.9611V27.5999C49.9053 26.5766 49.4202 25.7339 48.5106 24.9514C47.9042 24.53 47.2978 24.2893 46.6308 24.2893H46.267C45.2361 24.2893 44.3872 24.7708 43.5989 25.6737C43.1138 26.3359 42.9319 26.998 42.9319 27.5999Z" fill="#616160"/>
<path d="M52.5118 31.2717H53.7852C53.8458 31.2717 53.8459 31.2717 53.8459 31.3319V32.5358C53.8459 32.596 53.8458 32.596 53.7852 32.596H52.5118C52.4512 32.596 52.4512 32.596 52.4512 32.5358L52.5118 31.2717Z" fill="#616160"/>
<path d="M39.0466 38.6747H1.33804V1.3253H39.0466V20.241H40.3846V0.662651C40.3846 0.301205 40.0805 0 39.7156 0H0.669022C0.304101 0 0 0.301205 0 0.662651V39.3373C0 39.6988 0.304101 40 0.669022 40H39.7156C40.0805 40 40.3846 39.6988 40.3846 39.3373V35.3012H39.0466V38.6747Z" fill="#FCC10A"/>
</svg>
