<svg width="89" height="91" viewBox="0 0 89 91" fill="none" xmlns="http://www.w3.org/2000/svg">
<circle cx="37" cy="82" r="8" fill="#FCC10A" stroke="#444443" stroke-width="2"/>
<g clip-path="url(#clip0_2436_5580)">
<path d="M22.9506 52.9593H20.7457C20.6454 52.9593 19.6432 50.8057 17.7389 46.4005C17.5384 45.9111 16.5362 43.7575 14.7321 39.7439C11.0238 48.2605 9.0193 52.6656 8.81885 52.9593H6.6139H6.51367C11.0238 42.8764 13.4292 37.5903 13.6297 37.1987H15.9348C16.0351 37.1987 16.5362 38.2755 17.4382 40.527C17.6387 40.9186 19.543 45.0301 22.9506 52.9593Z" fill="#616160"/>
<path d="M25.1549 50.8057H27.2596C27.3599 50.8057 27.3599 50.8057 27.3599 50.9036V52.8614C27.3599 52.9593 27.3599 52.9593 27.2596 52.9593H25.1549C25.0547 52.9593 25.0547 52.9593 25.0547 52.8614L25.1549 50.8057Z" fill="#616160"/>
<path d="M35.2791 37.1987H35.8805C38.3861 37.1987 40.4908 38.3734 42.2949 40.6249C43.1969 42.0933 43.5978 43.4638 43.5978 44.7364V45.3237C43.5978 47.6731 42.4954 49.7289 40.1902 51.5888C38.6868 52.5677 37.0832 53.0572 35.5798 53.0572C33.1744 53.0572 31.0697 52.0782 29.2656 50.1204C29.2656 50.1204 29.7667 49.5331 30.8692 48.5542H31.0697C32.2724 50.0225 33.7758 50.8057 35.5798 50.8057C37.9852 50.8057 39.7893 49.631 40.992 47.2816L41.2927 46.3026H35.2791C35.1789 46.3026 35.1789 46.3026 35.1789 46.2048V44.0511C35.1789 43.9532 35.1789 43.9533 35.2791 43.9533H41.2927C40.8918 42.4849 40.1902 41.4081 39.2881 40.7228C38.1857 39.8418 37.0832 39.4502 35.9807 39.4502H35.3794C33.7758 39.4502 32.3726 40.2334 31.0697 41.7017C31.0697 41.7017 30.4683 41.2123 29.4661 40.1355C30.3681 38.8629 31.8715 37.9819 33.9762 37.3945C34.2769 37.1987 34.778 37.1987 35.2791 37.1987Z" fill="#616160"/>
<path d="M45.8014 50.8057H47.9061C48.0064 50.8057 48.0064 50.8057 48.0064 50.9036V52.8614C48.0064 52.9593 48.0064 52.9593 47.9061 52.9593H45.8014C45.7012 52.9593 45.7012 52.9593 45.7012 52.8614L45.8014 50.8057C45.7012 50.8057 45.7012 50.8057 45.8014 50.8057Z" fill="#616160"/>
<path d="M54.8231 52.9593V39.2545H49.9121V37.1987H62.34V39.3523H57.429V53.0572H54.8231V52.9593Z" fill="#616160"/>
<path d="M64.444 50.8057H66.5487C66.6489 50.8057 66.6489 50.8057 66.6489 50.9036V52.8614C66.6489 52.9593 66.6489 52.9593 66.5487 52.9593H64.444C64.3438 52.9593 64.3438 52.9593 64.3438 52.8614L64.444 50.8057C64.3438 50.8057 64.3438 50.8057 64.444 50.8057Z" fill="#616160"/>
<path d="M76.2701 37.1987H77.0719C79.0764 37.1987 81.0809 38.1776 82.8849 40.0376C84.0876 41.7017 84.689 43.268 84.689 44.7364V45.5195C84.689 47.4773 83.6867 49.4352 81.7825 51.1972C80.0786 52.3719 78.475 52.9593 76.9717 52.9593H76.1698C74.1653 52.9593 72.1608 51.9804 70.3568 50.1204C69.1541 48.4563 68.5527 46.89 68.5527 45.4216V44.6385C68.5527 42.6807 69.555 40.7228 71.4593 38.9608C73.0629 37.7861 74.6665 37.1987 76.2701 37.1987ZM70.9581 44.8343V45.0301V45.1279V45.3237C70.9581 46.9879 71.7599 48.3584 73.2633 49.631C74.2656 50.3162 75.2678 50.7078 76.3703 50.7078H76.9717C78.6755 50.7078 80.0786 49.9246 81.3816 48.4563C82.0831 47.4773 82.484 46.4984 82.484 45.4216V44.8343C82.484 43.1701 81.6822 41.7996 80.1789 40.527C79.1766 39.8418 78.1744 39.4502 77.0719 39.4502H76.4705C74.7667 39.4502 73.3635 40.2334 72.0606 41.7017C71.2588 42.7785 70.9581 43.8554 70.9581 44.8343Z" fill="#616160"/>
<path d="M86.7936 50.8057H88.8983C88.9985 50.8057 88.9985 50.8057 88.9985 50.9036V52.8614C88.9985 52.9593 88.9985 52.9593 88.8983 52.9593H86.7936C86.6934 52.9593 86.6934 52.9593 86.6934 52.8614L86.7936 50.8057Z" fill="#616160"/>
<path d="M64.3446 62.8464H2.20495V2.15361H64.3446V32.8916H66.5495V1.07681C66.5495 0.489458 66.0484 0 65.4471 0H1.10248C0.501126 0 0 0.489458 0 1.07681V63.9232C0 64.5105 0.501126 65 1.10248 65H65.4471C66.0484 65 66.5495 64.5105 66.5495 63.9232V57.3645H64.3446V62.8464Z" fill="#FCC10A"/>
</g>
<defs>
<clipPath id="clip0_2436_5580">
<rect width="89" height="65" fill="white"/>
</clipPath>
</defs>
</svg>
