<svg width="85" height="85" viewBox="0 0 85 85" fill="none" xmlns="http://www.w3.org/2000/svg">
<circle cx="6" cy="79" r="5" fill="#FCC10A" stroke="#616160" stroke-width="2"/>
<rect x="13" y="1" width="71" height="71" rx="5" fill="white" stroke="#616160" stroke-width="2"/>
<path d="M34.7009 50.0134H33.2888C33.2246 50.0134 32.5827 48.6303 31.3631 45.801C31.2347 45.4867 30.5928 44.1035 29.4374 41.5258C27.0624 46.9956 25.7786 49.8248 25.6502 50.0134H24.238H24.1738C27.0624 43.5377 28.6029 40.1426 28.7313 39.8911H30.2076C30.2718 39.8911 30.5928 40.5827 31.1705 42.0287C31.2989 42.2802 32.5185 44.9208 34.7009 50.0134Z" fill="#616160"/>
<path d="M36.113 48.6301H37.461C37.5252 48.6301 37.5252 48.6301 37.5252 48.693V49.9504C37.5252 50.0133 37.5252 50.0133 37.461 50.0133H36.113C36.0488 50.0133 36.0488 50.0133 36.0488 49.9504L36.113 48.6301Z" fill="#616160"/>
<path d="M42.5975 39.8911H42.9826C44.5873 39.8911 45.9353 40.6456 47.0907 42.0916C47.6684 43.0347 47.9252 43.9149 47.9252 44.7322V45.1095C47.9252 46.6184 47.2191 47.9387 45.7428 49.1332C44.7799 49.762 43.7529 50.0763 42.79 50.0763C41.2495 50.0763 39.9015 49.4476 38.7461 48.1902C38.7461 48.1902 39.067 47.8129 39.7731 47.1842H39.9015C40.6718 48.1273 41.6346 48.6303 42.79 48.6303C44.3306 48.6303 45.486 47.8758 46.2563 46.3669L46.4488 45.7382H42.5975C42.5333 45.7382 42.5333 45.7382 42.5333 45.6753V44.2921C42.5333 44.2293 42.5333 44.2293 42.5975 44.2293H46.4488C46.1921 43.2862 45.7428 42.5946 45.1651 42.1545C44.459 41.5886 43.7529 41.3372 43.0468 41.3372H42.6617C41.6346 41.3372 40.736 41.8401 39.9015 42.7832C39.9015 42.7832 39.5164 42.4688 38.8745 41.7773C39.4522 40.9599 40.415 40.3941 41.763 40.0169C41.9556 39.8911 42.2765 39.8911 42.5975 39.8911Z" fill="#616160"/>
<path d="M49.3357 48.6301H50.6837C50.7478 48.6301 50.7478 48.6301 50.7478 48.693V49.9504C50.7478 50.0133 50.7478 50.0133 50.6837 50.0133H49.3357C49.2715 50.0133 49.2715 50.0133 49.2715 49.9504L49.3357 48.6301C49.2715 48.6301 49.2715 48.6301 49.3357 48.6301Z" fill="#616160"/>
<path d="M55.114 50.0134V41.2114H51.9688V39.8911H59.9283V41.2743H56.783V50.0763H55.114V50.0134Z" fill="#616160"/>
<path d="M61.2751 48.6301H62.6231C62.6873 48.6301 62.6873 48.6301 62.6873 48.693V49.9504C62.6873 50.0133 62.6873 50.0133 62.6231 50.0133H61.2751C61.2109 50.0133 61.2109 50.0133 61.2109 49.9504L61.2751 48.6301C61.2109 48.6301 61.2109 48.6301 61.2751 48.6301Z" fill="#616160"/>
<path d="M68.8508 39.8911H69.3643C70.6481 39.8911 71.9319 40.5198 73.0873 41.7144C73.8576 42.7832 74.2427 43.7892 74.2427 44.7322V45.2352C74.2427 46.4926 73.6008 47.7501 72.3812 48.8818C71.29 49.6362 70.263 50.0134 69.3001 50.0134H68.7866C67.5028 50.0134 66.219 49.3847 65.0636 48.1902C64.2933 47.1213 63.9082 46.1154 63.9082 45.1723V44.6694C63.9082 43.4119 64.5501 42.1545 65.7697 41.0228C66.7967 40.2683 67.8238 39.8911 68.8508 39.8911ZM65.4488 44.7951V44.9208V44.9837V45.1095C65.4488 46.1783 65.9623 47.0585 66.9251 47.8758C67.567 48.3159 68.2089 48.5674 68.915 48.5674H69.3001C70.3914 48.5674 71.29 48.0644 72.1245 47.1213C72.5738 46.4926 72.8306 45.8639 72.8306 45.1723V44.7951C72.8306 43.7263 72.317 42.8461 71.3542 42.0287C70.7123 41.5886 70.0704 41.3372 69.3643 41.3372H68.9792C67.888 41.3372 66.9893 41.8401 66.1548 42.7832C65.6413 43.4748 65.4488 44.1664 65.4488 44.7951Z" fill="#616160"/>
<path d="M75.5896 48.6301H76.9376C77.0017 48.6301 77.0018 48.6301 77.0018 48.693V49.9504C77.0018 50.0133 77.0017 50.0133 76.9376 50.0133H75.5896C75.5254 50.0133 75.5254 50.0133 75.5254 49.9504L75.5896 48.6301Z" fill="#616160"/>
<path d="M61.2097 56.3636H21.4122V17.3832H61.2097V37.1249H62.6219V16.6916C62.6219 16.3144 62.3009 16 61.9158 16H20.7061C20.3209 16 20 16.3144 20 16.6916V57.0552C20 57.4324 20.3209 57.7467 20.7061 57.7467H61.9158C62.3009 57.7467 62.6219 57.4324 62.6219 57.0552V52.8428H61.2097V56.3636Z" fill="#FCC10A"/>
</svg>
