<svg width="77" height="77" viewBox="0 0 77 77" fill="none" xmlns="http://www.w3.org/2000/svg">
<g id="Frame" clip-path="url(#clip0_382_643)">
<path id="Vector" d="M64.7869 51.9926H12.2129V27.6829C12.2129 24.4261 14.7718 21.8672 18.0286 21.8672H58.9712C62.228 21.8672 64.7869 24.4261 64.7869 27.6829V51.9926Z" stroke="#FCC008" stroke-width="1.5" stroke-miterlimit="10" stroke-linecap="round" stroke-linejoin="round"/>
<path id="Vector_2" d="M12.2129 43.2688H64.7869" stroke="#FCC008" stroke-width="1.5" stroke-miterlimit="10" stroke-linecap="round" stroke-linejoin="round"/>
<g id="Group">
<g id="Group_2">
<path id="Vector_3" d="M68.2766 51.9924H61.4141V37.1042C61.4141 35.2431 62.9261 33.6147 64.9035 33.6147C66.7645 33.6147 68.3929 35.1268 68.3929 37.1042V51.9924H68.2766Z" fill="white" stroke="#FCC008" stroke-width="1.5" stroke-miterlimit="10" stroke-linecap="round" stroke-linejoin="round"/>
<path id="Vector_4" d="M15.5862 51.9924H8.72363V37.1042C8.72363 35.2431 10.2357 33.6147 12.2131 33.6147C14.0741 33.6147 15.7025 35.1268 15.7025 37.1042V51.9924H15.5862Z" fill="white" stroke="#FCC008" stroke-width="1.5" stroke-miterlimit="10" stroke-linecap="round" stroke-linejoin="round"/>
</g>
</g>
<g id="Group_3">
<path id="Vector_5" d="M12.562 52.3413L9.77051 55.1329" stroke="#FCC008" stroke-width="1.5" stroke-miterlimit="10" stroke-linecap="round" stroke-linejoin="round"/>
<path id="Vector_6" d="M64.4385 52.3413L67.23 55.1329" stroke="#FCC008" stroke-width="1.5" stroke-miterlimit="10" stroke-linecap="round" stroke-linejoin="round"/>
</g>
</g>
<defs>
<clipPath id="clip0_382_643">
<rect width="77" height="77" fill="white"/>
</clipPath>
</defs>
</svg>
