<svg width="77" height="76" viewBox="0 0 77 76" fill="none" xmlns="http://www.w3.org/2000/svg">
<g id="Frame" clip-path="url(#clip0_382_563)">
<path id="Vector" d="M26.9847 54.6466H23.2627C21.4016 54.6466 20.0059 53.1541 20.0059 51.4321V21.1239C20.0059 19.2871 21.5179 17.9094 23.2627 17.9094H53.8533C55.7143 17.9094 57.1101 19.4019 57.1101 21.1239V51.3173C57.1101 53.1541 55.598 54.5318 53.8533 54.5318H50.1312" stroke="#FCC008" stroke-width="1.5" stroke-miterlimit="10" stroke-linecap="round" stroke-linejoin="round"/>
<path id="Vector_2" d="M26.9852 51.6617H25.5894C24.0773 51.6617 22.7979 50.3989 22.7979 48.9064V23.5348C22.7979 22.0424 24.0773 20.7795 25.5894 20.7795H51.2948C52.8069 20.7795 54.0864 22.0424 54.0864 23.5348V48.9064C54.0864 50.3989 52.8069 51.6617 51.2948 51.6617H50.0154" stroke="#FCC008" stroke-width="1.5" stroke-miterlimit="10" stroke-linecap="round" stroke-linejoin="round"/>
<g id="Group">
<path id="Vector_3" d="M38.4995 44.4291C43.0605 44.4291 46.7578 40.7797 46.7578 36.278C46.7578 31.7763 43.0605 28.127 38.4995 28.127C33.9386 28.127 30.2412 31.7763 30.2412 36.278C30.2412 40.7797 33.9386 44.4291 38.4995 44.4291Z" stroke="#FCC008" stroke-width="1.5" stroke-miterlimit="10" stroke-linecap="round" stroke-linejoin="round"/>
</g>
<g id="Group_2">
<path id="Vector_4" d="M35.2431 37.3111C35.8213 37.3111 36.2899 36.8485 36.2899 36.2779C36.2899 35.7072 35.8213 35.2446 35.2431 35.2446C34.665 35.2446 34.1963 35.7072 34.1963 36.2779C34.1963 36.8485 34.665 37.3111 35.2431 37.3111Z" fill="#FCC008"/>
<path id="Vector_5" d="M41.7568 37.3111C42.3349 37.3111 42.8036 36.8485 42.8036 36.2779C42.8036 35.7072 42.3349 35.2446 41.7568 35.2446C41.1786 35.2446 40.71 35.7072 40.71 36.2779C40.71 36.8485 41.1786 37.3111 41.7568 37.3111Z" fill="#FCC008"/>
</g>
<g id="Group_3">
<g id="Group_4">
<path id="Vector_6" d="M37.2207 61.9942V58.55" stroke="#FCC008" stroke-width="1.5" stroke-miterlimit="10" stroke-linecap="round" stroke-linejoin="round"/>
<path id="Vector_7" d="M39.8955 61.9942V58.55" stroke="#FCC008" stroke-width="1.5" stroke-miterlimit="10" stroke-linecap="round" stroke-linejoin="round"/>
</g>
<g id="Group_5">
<path id="Vector_8" d="M33.498 48.9065V45.5771" stroke="#FCC008" stroke-width="1.5" stroke-miterlimit="10" stroke-linecap="round" stroke-linejoin="round"/>
<path id="Vector_9" d="M43.6172 48.9065V45.5771" stroke="#FCC008" stroke-width="1.5" stroke-miterlimit="10" stroke-linecap="round" stroke-linejoin="round"/>
</g>
<path id="Vector_10" d="M42.4549 57.7463H34.5455C32.3355 57.7463 30.5908 56.0242 30.5908 53.843V49.5952H46.2932V53.843C46.4096 56.0242 44.6648 57.7463 42.4549 57.7463Z" stroke="#FCC008" stroke-width="1.5" stroke-miterlimit="10" stroke-linecap="round" stroke-linejoin="round"/>
<path id="Vector_11" d="M28.7295 49.71H48.2703" stroke="#FCC008" stroke-width="1.5" stroke-miterlimit="10" stroke-linecap="round" stroke-linejoin="round"/>
</g>
</g>
<defs>
<clipPath id="clip0_382_563">
<rect width="77" height="76" fill="white"/>
</clipPath>
</defs>
</svg>
