<svg width="77" height="76" viewBox="0 0 77 76" fill="none" xmlns="http://www.w3.org/2000/svg">
<g id="Frame" clip-path="url(#clip0_382_623)">
<g id="Group">
<path id="Vector" d="M26.8682 52.4653H51.6431L57.6914 30.5378" stroke="#FCC008" stroke-width="1.5" stroke-miterlimit="10" stroke-linecap="round" stroke-linejoin="round"/>
<path id="Vector_2" d="M15.8184 20.5498L22.0993 21.9274L26.054 47.2991H53.0389" stroke="#FCC008" stroke-width="1.5" stroke-miterlimit="10" stroke-linecap="round" stroke-linejoin="round"/>
<path id="Vector_3" d="M32.5678 60.7312C34.0453 60.7312 35.243 59.549 35.243 58.0907C35.243 56.6324 34.0453 55.4502 32.5678 55.4502C31.0903 55.4502 29.8926 56.6324 29.8926 58.0907C29.8926 59.549 31.0903 60.7312 32.5678 60.7312Z" stroke="#FCC008" stroke-width="1.5" stroke-miterlimit="10" stroke-linecap="round" stroke-linejoin="round"/>
<path id="Vector_4" d="M46.642 60.7312C48.1195 60.7312 49.3173 59.549 49.3173 58.0907C49.3173 56.6324 48.1195 55.4502 46.642 55.4502C45.1645 55.4502 43.9668 56.6324 43.9668 58.0907C43.9668 59.549 45.1645 60.7312 46.642 60.7312Z" stroke="#FCC008" stroke-width="1.5" stroke-miterlimit="10" stroke-linecap="round" stroke-linejoin="round"/>
</g>
<g id="Group_2">
<g id="Group_3">
<path id="Vector_5" d="M52.3414 27.2083L36.29 27.0935L38.1511 16.876L50.713 16.9908L52.3414 27.2083Z" stroke="#FCC008" stroke-width="1.5" stroke-miterlimit="10" stroke-linecap="round" stroke-linejoin="round"/>
<path id="Vector_6" d="M44.4323 20.2053L38.1514 16.876" stroke="#FCC008" stroke-width="1.5" stroke-miterlimit="10" stroke-linecap="round" stroke-linejoin="round"/>
<path id="Vector_7" d="M50.7126 16.9907L44.4316 20.2052" stroke="#FCC008" stroke-width="1.5" stroke-miterlimit="10" stroke-linecap="round" stroke-linejoin="round"/>
</g>
<path id="Vector_8" d="M40.9424 16.7612C40.9424 15.3836 42.4545 14.3503 44.4318 14.3503C46.2928 14.3503 47.9212 15.4984 47.8049 16.876" stroke="#FCC008" stroke-width="1.5" stroke-miterlimit="10" stroke-linecap="round" stroke-linejoin="round"/>
</g>
<g id="Group_4">
<g id="Group_5">
<path id="Vector_9" d="M35.4762 19.4019C35.3599 19.9759 34.4294 20.4351 33.2663 20.4351C32.1031 20.4351 31.1726 19.9759 31.0563 19.4019L25.9385 21.8127V25.4864L28.73 24.7976V35.4744H33.15H33.2663H37.6862V24.7976L40.4778 25.4864V21.8127L35.4762 19.4019Z" fill="white" stroke="#FCC008" stroke-width="1.5" stroke-miterlimit="10" stroke-linecap="round" stroke-linejoin="round"/>
</g>
</g>
<g id="Group_6">
<g id="Group_7">
<path id="Vector_10" d="M43.8509 38.3444L45.0141 36.6223V30.7673H50.3645V37.1963V41.3293H39.082V40.8701C39.082 38.6888 41.7573 38.3444 43.8509 38.3444Z" fill="white" stroke="#FCC008" stroke-width="1.5" stroke-miterlimit="10" stroke-linecap="round" stroke-linejoin="round"/>
<path id="Vector_11" d="M50.3645 41.9033V43.7402H47.8056V43.3958H46.0609V43.7402H39.082V41.9033" stroke="#FCC008" stroke-width="1.5" stroke-miterlimit="10" stroke-linecap="round" stroke-linejoin="round"/>
</g>
</g>
</g>
<defs>
<clipPath id="clip0_382_623">
<rect width="77" height="76" fill="white"/>
</clipPath>
</defs>
</svg>
