<svg width="76" height="77" viewBox="0 0 76 77" fill="none" xmlns="http://www.w3.org/2000/svg">
<g id="Frame" clip-path="url(#clip0_382_488)">
<path id="Vector" d="M29.8491 33.7312L30.8824 24.4261C31.2268 21.7508 29.1603 19.4246 26.5198 19.4246C23.8793 19.4246 21.8129 21.7508 22.1573 24.4261L23.1905 33.7312C23.3053 35.0107 22.3869 36.0575 21.1241 36.0575H16.1875V56.7614H36.7373V36.0575H31.8008C30.6528 36.0575 29.6195 35.0107 29.8491 33.7312Z" stroke="#FCC008" stroke-width="1.5" stroke-miterlimit="10" stroke-linecap="round" stroke-linejoin="round"/>
<g id="Group">
<path id="Vector_2" d="M20.3203 56.645V51.4109" stroke="#FCC008" stroke-width="1.5" stroke-miterlimit="10" stroke-linecap="round" stroke-linejoin="round"/>
<path id="Vector_3" d="M24.4531 56.645V51.4109" stroke="#FCC008" stroke-width="1.5" stroke-miterlimit="10" stroke-linecap="round" stroke-linejoin="round"/>
<path id="Vector_4" d="M28.5859 56.645V51.4109" stroke="#FCC008" stroke-width="1.5" stroke-miterlimit="10" stroke-linecap="round" stroke-linejoin="round"/>
<path id="Vector_5" d="M32.6045 56.645V51.4109" stroke="#FCC008" stroke-width="1.5" stroke-miterlimit="10" stroke-linecap="round" stroke-linejoin="round"/>
</g>
<path id="Vector_6" d="M16.3018 42.2222H36.7368" stroke="#FCC008" stroke-width="1.5" stroke-miterlimit="10" stroke-linecap="round" stroke-linejoin="round"/>
<path id="Vector_7" d="M26.5195 26.1708C27.5339 26.1708 28.3563 25.3376 28.3563 24.3098C28.3563 23.2819 27.5339 22.4487 26.5195 22.4487C25.505 22.4487 24.6826 23.2819 24.6826 24.3098C24.6826 25.3376 25.505 26.1708 26.5195 26.1708Z" stroke="#FCC008" stroke-width="1.5" stroke-miterlimit="10" stroke-linecap="round" stroke-linejoin="round"/>
<path id="Vector_8" d="M54.302 20.8203H48.9062V58.5061H54.302V20.8203Z" stroke="#FCC008" stroke-width="1.5" stroke-miterlimit="10" stroke-linecap="round" stroke-linejoin="round"/>
<path id="Vector_9" d="M35.9336 29.7763V27.799L42.0182 24.3096H59.8127V29.7763H35.9336Z" fill="white" stroke="#FCC008" stroke-width="1.5" stroke-miterlimit="10" stroke-linecap="round" stroke-linejoin="round"/>
</g>
<defs>
<clipPath id="clip0_382_488">
<rect width="76" height="77" fill="white"/>
</clipPath>
</defs>
</svg>
