<svg width="77" height="77" viewBox="0 0 77 77" fill="none" xmlns="http://www.w3.org/2000/svg">
<g id="Frame" clip-path="url(#clip0_382_672)">
<g id="Group">
<g id="Group_2">
<path id="Vector" d="M38.8493 27.5665L40.8267 25.9381C41.0593 25.7055 41.1756 25.3565 41.0593 25.0076L39.8961 22.6813C39.7798 22.4487 39.4309 22.2161 39.0819 22.3324L36.523 22.914C36.0578 22.4487 35.5925 22.0998 35.1273 21.6345L35.3599 19.0756C35.3599 18.7266 35.2436 18.3777 34.7783 18.2614L32.2194 17.4472C31.8705 17.3309 31.5215 17.4472 31.2889 17.7961L29.8931 20.0061C29.3116 20.0061 28.6137 20.1224 28.0321 20.2387L26.4037 18.2614C26.1711 18.0288 25.8221 17.9124 25.4732 18.0288L23.1469 19.1919C22.9143 19.3082 22.6816 19.6572 22.798 20.0061L23.3795 22.565C22.9143 23.0303 22.5653 23.4955 22.1001 23.9608L19.5412 23.7281C19.1922 23.7281 18.8433 23.8445 18.727 24.3097L17.9128 26.8686C17.7964 27.2176 17.9128 27.5665 18.2617 27.7991L20.4717 29.1949C20.4717 29.7765 20.588 30.4744 20.7043 31.0559L18.727 32.6843C18.4943 32.917 18.378 33.2659 18.4943 33.6149L19.6575 35.9411C19.7738 36.1738 20.1227 36.4064 20.4717 36.2901L23.0306 35.7085C23.4958 36.1738 23.9611 36.5227 24.4264 36.988L24.31 39.5469C24.31 39.8958 24.4264 40.2448 24.8916 40.3611L27.4505 41.1753C27.7995 41.2916 28.1484 41.1753 28.381 40.8263L29.7768 38.6164" stroke="#FCC008" stroke-width="1.5" stroke-miterlimit="10" stroke-linecap="round" stroke-linejoin="round"/>
<path id="Vector_2" d="M29.7771 33.3822C27.5671 33.3822 25.7061 31.5212 25.7061 29.3112C25.7061 27.1013 27.5671 25.2402 29.7771 25.2402C31.987 25.2402 33.848 27.1013 33.848 29.3112" stroke="#FCC008" stroke-width="1.5" stroke-miterlimit="10" stroke-linecap="round" stroke-linejoin="round"/>
<g id="Group_3">
<path id="Vector_3" d="M33.0333 57.2268L26.2871 50.4806L26.8687 48.2706L33.8475 41.2917L42.3385 49.6664L35.127 56.7615L33.0333 57.2268Z" stroke="#FCC008" stroke-width="1.5" stroke-miterlimit="10" stroke-linecap="round" stroke-linejoin="round"/>
<path id="Vector_4" d="M39.9863 31.8272L37.7656 34.0479L49.4445 45.7268L51.6652 43.5061L39.9863 31.8272Z" stroke="#FCC008" stroke-width="1.5" stroke-miterlimit="10" stroke-linecap="round" stroke-linejoin="round"/>
<path id="Vector_5" d="M34.4052 37.411L32.1846 39.6316L43.8635 51.3105L46.0841 49.0899L34.4052 37.411Z" stroke="#FCC008" stroke-width="1.5" stroke-miterlimit="10" stroke-linecap="round" stroke-linejoin="round"/>
<path id="Vector_6" d="M35.8799 31.9873L32.5078 35.3594L48.2168 51.0683L51.5888 47.6962L35.8799 31.9873Z" stroke="#FCC008" stroke-width="1.5" stroke-miterlimit="10" stroke-linecap="round" stroke-linejoin="round"/>
<path id="Vector_7" d="M27.1791 51.3304L22.9023 55.6072L27.9193 60.6242L32.1961 56.3474L27.1791 51.3304Z" stroke="#FCC008" stroke-width="1.5" stroke-miterlimit="10" stroke-linecap="round" stroke-linejoin="round"/>
<path id="Vector_8" d="M22.3327 61.1814C21.4021 60.2509 21.4021 58.8551 22.3327 57.9246L23.7284 56.5288L26.9852 59.7856L25.5894 61.1814C24.6589 62.1119 23.2632 62.1119 22.3327 61.1814Z" stroke="#FCC008" stroke-width="1.5" stroke-miterlimit="10" stroke-linecap="round" stroke-linejoin="round"/>
<path id="Vector_9" d="M57.9246 28.2645L58.6225 27.5666C59.3204 26.8687 59.3204 25.5893 58.6225 24.8914C57.9246 24.1935 56.6452 24.1935 55.9473 24.8914L55.2494 25.5893L52.3415 22.6814L41.6406 33.3823L50.0152 41.7569L60.7162 31.056L57.9246 28.2645Z" stroke="#FCC008" stroke-width="1.5" stroke-miterlimit="10" stroke-linecap="round" stroke-linejoin="round"/>
<path id="Vector_10" d="M61.1811 32.568L47.4561 25.8218" stroke="#FCC008" stroke-width="1.5" stroke-miterlimit="10" stroke-linecap="round" stroke-linejoin="round"/>
<path id="Vector_11" d="M58.6226 35.2433L44.7812 28.4971" stroke="#FCC008" stroke-width="1.5" stroke-miterlimit="10" stroke-linecap="round" stroke-linejoin="round"/>
<path id="Vector_12" d="M55.9477 38.035L45.5957 33.0334" stroke="#FCC008" stroke-width="1.5" stroke-miterlimit="10" stroke-linecap="round" stroke-linejoin="round"/>
</g>
</g>
</g>
</g>
<defs>
<clipPath id="clip0_382_672">
<rect width="77" height="77" fill="white"/>
</clipPath>
</defs>
</svg>
