<svg width="77" height="76" viewBox="0 0 77 76" fill="none" xmlns="http://www.w3.org/2000/svg">
<g id="Frame" clip-path="url(#clip0_382_581)">
<g id="Group">
<g id="Group_2">
<path id="Vector_2" d="M15.8187 52.006L11.9804 48.2175L10.5846 49.5952C9.65409 50.5136 9.65409 52.1209 10.5846 53.0393L10.9335 53.3837C11.8641 54.3021 13.4925 54.3021 14.423 53.3837L15.8187 52.006Z" stroke="#FCC008" stroke-width="1.5" stroke-miterlimit="10" stroke-linecap="round" stroke-linejoin="round"/>
<path id="Vector_3" d="M5.93164 57.9757L10.7005 53.2688" stroke="#FCC008" stroke-width="1.5" stroke-miterlimit="10" stroke-linecap="round" stroke-linejoin="round"/>
<g id="Group_3">
<path id="Vector_4" d="M30.1246 42.3623L35.2424 37.311C36.0566 36.5073 36.0566 35.2445 35.2424 34.4409L29.7756 29.0451C28.9614 28.2415 27.682 28.2415 26.8678 29.0451L11.1653 44.5436C10.3511 45.3472 10.3511 46.6101 11.1653 47.4137L16.6321 52.8095C17.4463 53.6131 18.7258 53.6131 19.54 52.8095" stroke="#FCC008" stroke-width="1.5" stroke-miterlimit="10" stroke-linecap="round" stroke-linejoin="round"/>
<g id="Group_4">
<path id="Vector_5" d="M15.2363 40.5254L19.54 44.6583" stroke="#FCC008" stroke-width="1.5" stroke-miterlimit="10" stroke-linecap="round" stroke-linejoin="round"/>
<path id="Vector_6" d="M19.4238 36.3923L22.3317 39.2624" stroke="#FCC008" stroke-width="1.5" stroke-miterlimit="10" stroke-linecap="round" stroke-linejoin="round"/>
<path id="Vector_7" d="M23.6113 32.2595L27.7986 36.3925" stroke="#FCC008" stroke-width="1.5" stroke-miterlimit="10" stroke-linecap="round" stroke-linejoin="round"/>
</g>
</g>
<g id="Group_5">
<path id="Vector_8" d="M31.5205 30.6525L35.5915 26.5195" stroke="#FCC008" stroke-width="1.5" stroke-miterlimit="10" stroke-linecap="round" stroke-linejoin="round"/>
<path id="Vector_9" d="M33.7305 32.7188L37.8015 28.7007" stroke="#FCC008" stroke-width="1.5" stroke-miterlimit="10" stroke-linecap="round" stroke-linejoin="round"/>
</g>
<path id="Vector_10" d="M41.0584 28.1268L36.1732 23.305C35.5916 22.731 34.7774 22.731 34.3122 23.305C33.7306 23.879 33.7306 24.6827 34.3122 25.1419L39.1974 29.9636C39.7789 30.5377 40.5931 30.5377 41.0584 29.9636C41.6399 29.5044 41.6399 28.7008 41.0584 28.1268Z" stroke="#FCC008" stroke-width="1.5" stroke-miterlimit="10" stroke-linecap="round" stroke-linejoin="round"/>
</g>
<g id="Group_6">
<g id="Group_7">
<path id="Vector_11" d="M56.4121 47.2988C56.4121 47.2988 62.4604 51.891 56.4121 58.2052" stroke="#FCC008" stroke-width="1.5" stroke-miterlimit="10" stroke-linecap="round" stroke-linejoin="round"/>
<path id="Vector_12" d="M25.0075 47.2988C25.0075 47.2988 18.9591 51.891 25.0075 58.2052" stroke="#FCC008" stroke-width="1.5" stroke-miterlimit="10" stroke-linecap="round" stroke-linejoin="round"/>
</g>
<path id="Vector_13" d="M25.124 45.6916L37.337 44.5436C37.9186 44.5436 38.6165 44.314 38.9654 43.9696C40.1286 43.0512 41.9896 43.0512 43.1527 43.9696H43.269C43.7343 44.314 44.3159 44.5436 44.8974 44.5436L56.2962 45.6916V60.2717H25.124V45.6916Z" stroke="#FCC008" stroke-width="1.5" stroke-miterlimit="10" stroke-linecap="round" stroke-linejoin="round"/>
<path id="Vector_14" d="M28.8457 53.6132L38.1508 52.9243C38.6161 52.9243 39.0814 52.8095 39.4303 52.5799C40.3608 52.0059 41.7566 52.0059 42.6871 52.5799C43.036 52.8095 43.5013 52.9243 43.9666 52.9243L52.6901 53.6132" stroke="#FCC008" stroke-width="1.5" stroke-miterlimit="10" stroke-linecap="round" stroke-linejoin="round"/>
<path id="Vector_15" d="M28.8457 56.4833L38.1508 55.7945C38.6161 55.7945 39.0814 55.6797 39.4303 55.45C40.3608 54.876 41.7566 54.876 42.6871 55.45C43.036 55.6797 43.5013 55.7945 43.9666 55.7945L52.6901 56.4833" stroke="#FCC008" stroke-width="1.5" stroke-miterlimit="10" stroke-linecap="round" stroke-linejoin="round"/>
</g>
<g id="Group_8">
<path id="Vector_16" d="M51.4104 32.1449V31.8005C51.4104 29.2748 53.3877 27.2084 55.714 27.2084H56.063L57.924 24.2235C58.3892 23.4198 59.3198 23.305 60.0176 23.7642C60.7155 24.2235 60.8318 25.1419 60.4829 25.9455L56.2956 33.2929V41.444H44.5479V18.8277C44.5479 18.0241 45.1294 17.3352 45.9436 17.3352H46.1763C46.9905 17.3352 47.572 18.0241 47.572 18.8277V24.5679V15.154C47.572 14.3503 48.1536 13.6615 48.9678 13.6615H49.0841C49.8983 13.6615 50.4799 14.3503 50.4799 15.154V24.2235V13.8911C50.4799 13.0875 51.0614 12.3987 51.8756 12.3987H52.1083C52.9225 12.3987 53.504 13.0875 53.504 13.8911V24.1087V15.2688C53.504 14.4651 54.0856 13.7763 54.8998 13.7763C55.714 13.7763 56.2956 14.4651 56.2956 15.2688V26.6343" stroke="#FCC008" stroke-width="1.5" stroke-miterlimit="10" stroke-linecap="round" stroke-linejoin="round"/>
<path id="Vector_17" d="M58.8545 35.7039C59.5524 35.1299 60.4829 34.7855 61.5297 34.7855H61.8787L63.7397 31.8006C64.2049 30.9969 65.1355 30.8821 65.8333 31.3413C66.5312 31.8006 66.6475 32.719 66.2986 33.5226L62.2276 40.87V49.0211" stroke="#FCC008" stroke-width="1.5" stroke-miterlimit="10" stroke-linecap="round" stroke-linejoin="round"/>
</g>
</g>
</g>
<defs>
<clipPath id="clip0_382_581">
<rect width="77" height="76" fill="white"/>
</clipPath>
</defs>
</svg>
