<svg width="77" height="77" viewBox="0 0 77 77" fill="none" xmlns="http://www.w3.org/2000/svg">
<g id="Frame" clip-path="url(#clip0_382_710)">
<g id="Group">
<path id="Vector" d="M30.94 56.6449C29.8931 58.9712 28.6137 60.367 27.2179 60.367C23.4958 60.367 20.4717 50.5966 20.4717 38.4999C20.4717 26.4032 23.4958 16.6328 27.2179 16.6328C28.73 16.6328 30.1258 18.2612 31.2889 21.0528" stroke="#FCC008" stroke-width="1.5" stroke-miterlimit="10" stroke-linecap="round" stroke-linejoin="round"/>
<g id="Group_2">
<path id="Vector_2" d="M27.5665 56.7613C26.4033 56.7613 24.1934 48.7357 24.1934 38.9653C24.1934 29.1949 26.4033 21.1692 27.5665 21.1692" stroke="#FCC008" stroke-miterlimit="10" stroke-linecap="round" stroke-linejoin="round"/>
<g id="Group_3">
<path id="Vector_3" d="M27.334 21.1692H46.8748" stroke="#FCC008" stroke-miterlimit="10" stroke-linecap="round" stroke-linejoin="round"/>
<path id="Vector_4" d="M27.334 56.7612H47.8053" stroke="#FCC008" stroke-miterlimit="10" stroke-linecap="round" stroke-linejoin="round"/>
</g>
<path id="Vector_5" d="M30.5904 21.1692L26.6357 54.784" stroke="#FCC008" stroke-miterlimit="10" stroke-linecap="round" stroke-linejoin="round"/>
<path id="Vector_6" d="M32.9168 21.1692L28.7295 56.7613" stroke="#FCC008" stroke-miterlimit="10" stroke-linecap="round" stroke-linejoin="round"/>
<path id="Vector_7" d="M28.3808 21.1692L25.124 48.1541" stroke="#FCC008" stroke-miterlimit="10" stroke-linecap="round" stroke-linejoin="round"/>
<path id="Vector_8" d="M35.1268 21.1692L30.9395 56.7613" stroke="#FCC008" stroke-miterlimit="10" stroke-linecap="round" stroke-linejoin="round"/>
<path id="Vector_9" d="M37.4529 21.1692L33.2656 56.7613" stroke="#FCC008" stroke-miterlimit="10" stroke-linecap="round" stroke-linejoin="round"/>
<path id="Vector_10" d="M39.6629 21.1692L35.4756 56.7613" stroke="#FCC008" stroke-miterlimit="10" stroke-linecap="round" stroke-linejoin="round"/>
<path id="Vector_11" d="M41.9891 21.1692L37.8018 56.7613" stroke="#FCC008" stroke-miterlimit="10" stroke-linecap="round" stroke-linejoin="round"/>
<path id="Vector_12" d="M44.199 21.1692L40.0117 56.7613" stroke="#FCC008" stroke-miterlimit="10" stroke-linecap="round" stroke-linejoin="round"/>
<path id="Vector_13" d="M46.5252 21.1692L42.3379 56.7613" stroke="#FCC008" stroke-miterlimit="10" stroke-linecap="round" stroke-linejoin="round"/>
<path id="Vector_14" d="M46.7588 36.8716L44.5488 56.7613" stroke="#FCC008" stroke-miterlimit="10" stroke-linecap="round" stroke-linejoin="round"/>
</g>
<g id="Group_4">
<g id="Group_5">
<path id="Vector_15" d="M50.8294 60.367C54.0413 60.367 56.6451 50.5767 56.6451 38.4999C56.6451 26.423 54.0413 16.6328 50.8294 16.6328C47.6175 16.6328 45.0137 26.423 45.0137 38.4999C45.0137 50.5767 47.6175 60.367 50.8294 60.367Z" fill="white" stroke="#FCC008" stroke-width="1.5" stroke-miterlimit="10" stroke-linecap="round" stroke-linejoin="round"/>
</g>
<path id="Vector_16" d="M50.8297 39.7794C51.2152 39.7794 51.5276 39.2065 51.5276 38.4999C51.5276 37.7933 51.2152 37.2205 50.8297 37.2205C50.4443 37.2205 50.1318 37.7933 50.1318 38.4999C50.1318 39.2065 50.4443 39.7794 50.8297 39.7794Z" fill="#FCC008"/>
</g>
</g>
</g>
<defs>
<clipPath id="clip0_382_710">
<rect width="77" height="77" fill="white"/>
</clipPath>
</defs>
</svg>
