<svg width="76" height="76" viewBox="0 0 76 76" fill="none" xmlns="http://www.w3.org/2000/svg">
<g id="Frame" clip-path="url(#clip0_382_689)">
<g id="Group">
<g id="Group_2">
<g id="Group_3">
<path id="Vector" d="M16.7617 29.0454H42.7073" stroke="#FCC10A" stroke-width="1.5" stroke-miterlimit="10" stroke-linecap="round" stroke-linejoin="round"/>
<path id="Vector_2" d="M16.7617 58.2056H59.3539" stroke="#FCC10A" stroke-width="1.5" stroke-miterlimit="10" stroke-linecap="round" stroke-linejoin="round"/>
<path id="Vector_3" d="M19.9766 29.0454V58.2055" stroke="#FCC10A" stroke-width="1.5" stroke-miterlimit="10" stroke-linecap="round" stroke-linejoin="round"/>
<path id="Vector_4" d="M39.4932 29.0454V58.2055" stroke="#FCC10A" stroke-width="1.5" stroke-miterlimit="10" stroke-linecap="round" stroke-linejoin="round"/>
<path id="Vector_5" d="M31.1123 17.7947H59.354" stroke="#FCC10A" stroke-width="1.5" stroke-miterlimit="10" stroke-linecap="round" stroke-linejoin="round"/>
<path id="Vector_6" d="M40.1816 32.26H57.517" stroke="#FCC10A" stroke-width="1.5" stroke-miterlimit="10" stroke-linecap="round" stroke-linejoin="round"/>
<path id="Vector_7" d="M50.7432 47.7583H57.5166" stroke="#FCC10A" stroke-width="1.5" stroke-miterlimit="10" stroke-linecap="round" stroke-linejoin="round"/>
<path id="Vector_8" d="M34.4414 17.7947V25.9457" stroke="#FCC10A" stroke-width="1.5" stroke-miterlimit="10" stroke-linecap="round" stroke-linejoin="round"/>
<path id="Vector_9" d="M55.7949 17.7947V58.2056" stroke="#FCC10A" stroke-width="1.5" stroke-miterlimit="10" stroke-linecap="round" stroke-linejoin="round"/>
<path id="Vector_10" d="M17.7949 43.97H22.1575" stroke="#FCC10A" stroke-width="1.5" stroke-miterlimit="10" stroke-linecap="round" stroke-linejoin="round"/>
<path id="Vector_11" d="M37.3115 43.97H41.5593" stroke="#FCC10A" stroke-width="1.5" stroke-miterlimit="10" stroke-linecap="round" stroke-linejoin="round"/>
<path id="Vector_12" d="M32.9495 45.0032C32.9495 46.8401 31.4571 48.2177 29.735 48.2177C27.8982 48.2177 26.5205 46.7253 26.5205 45.0032C26.5205 43.2812 29.735 39.4927 29.735 39.4927C29.735 39.4927 32.9495 43.1664 32.9495 45.0032Z" stroke="#FCC10A" stroke-width="1.5" stroke-miterlimit="10" stroke-linecap="round" stroke-linejoin="round"/>
<g id="Group_4">
<g id="Group_5">
<path id="Vector_13" d="M50.7436 43.855H36.2783V58.3202H50.7436V43.855Z" fill="white" stroke="#FCC10A" stroke-width="1.5" stroke-miterlimit="10" stroke-linecap="round" stroke-linejoin="round"/>
<path id="Vector_14" d="M46.0367 43.855H40.9854V48.9063H46.0367V43.855Z" fill="white" stroke="#FCC10A" stroke-width="1.5" stroke-miterlimit="10" stroke-linecap="round" stroke-linejoin="round"/>
</g>
</g>
</g>
</g>
</g>
</g>
<defs>
<clipPath id="clip0_382_689">
<rect width="76" height="76" fill="white"/>
</clipPath>
</defs>
</svg>
