<svg width="77" height="77" viewBox="0 0 77 77" fill="none" xmlns="http://www.w3.org/2000/svg">
<g id="Frame" clip-path="url(#clip0_382_654)">
<g id="Group">
<g id="Group_2">
<g id="Group_3">
<path id="Vector" d="M55.0166 19.1919H21.9834V26.5197H55.0166V19.1919Z" fill="white"/>
<path id="Vector_2" d="M55.0166 19.1919H21.9834V26.5197H55.0166V19.1919Z" stroke="#FCC10A" stroke-width="1.5" stroke-miterlimit="10" stroke-linecap="round" stroke-linejoin="round"/>
</g>
<g id="Group_4">
<path id="Vector_3" d="M55.0166 44.4321H21.9834V57.8083H55.0166V44.4321Z" fill="white"/>
<path id="Vector_4" d="M55.0166 44.4321H21.9834V57.8083H55.0166V44.4321Z" stroke="#FCC10A" stroke-width="1.5" stroke-miterlimit="10" stroke-linecap="round" stroke-linejoin="round"/>
</g>
<g id="Group_5">
<g id="Group_6">
<path id="Vector_5" d="M27.1016 26.5198V44.4322" stroke="#FCC10A" stroke-width="1.5" stroke-miterlimit="10" stroke-linecap="round" stroke-linejoin="round"/>
<path id="Vector_6" d="M49.8994 26.5198V44.4322" stroke="#FCC10A" stroke-width="1.5" stroke-miterlimit="10" stroke-linecap="round" stroke-linejoin="round"/>
</g>
</g>
<g id="Group_7">
<g id="Group_8">
<path id="Vector_7" d="M38.6166 36.8717C40.0941 36.8717 41.2919 35.674 41.2919 34.1965C41.2919 32.719 40.0941 31.5212 38.6166 31.5212C37.1391 31.5212 35.9414 32.719 35.9414 34.1965C35.9414 35.674 37.1391 36.8717 38.6166 36.8717Z" fill="white" stroke="#FCC10A" stroke-width="1.5" stroke-miterlimit="10" stroke-linecap="round" stroke-linejoin="round"/>
<g id="Vector_8">
<path d="M32.917 42.4548C32.917 39.547 35.2433 37.2207 38.1511 37.2207H38.7327C41.6406 37.2207 43.9668 39.547 43.9668 42.4548V42.5712" fill="white"/>
<path d="M32.917 42.4548C32.917 39.547 35.2433 37.2207 38.1511 37.2207H38.7327C41.6406 37.2207 43.9668 39.547 43.9668 42.4548V42.5712" stroke="#FCC10A" stroke-width="1.5" stroke-miterlimit="10" stroke-linecap="round" stroke-linejoin="round"/>
</g>
</g>
</g>
</g>
</g>
</g>
<defs>
<clipPath id="clip0_382_654">
<rect width="77" height="77" fill="white"/>
</clipPath>
</defs>
</svg>
