<svg width="76" height="76" viewBox="0 0 76 76" fill="none" xmlns="http://www.w3.org/2000/svg">
<g id="Frame" clip-path="url(#clip0_382_607)">
<g id="Group">
<g id="Group_2">
<g id="Group_3">
<path id="Vector" d="M21.3533 38.3443V53.6132H6.19922L15.3835 38.2295L21.3533 38.3443Z" stroke="#FCC10A" stroke-width="1.5" stroke-miterlimit="10" stroke-linecap="round" stroke-linejoin="round"/>
<path id="Vector_2" d="M49.7096 20.0906H33.5223L26.9785 47.8731H64.5193C66.2414 47.8731 67.7338 46.4954 67.7338 44.6586V30.7673C67.7338 29.0453 66.3562 27.5528 64.5193 27.5528H49.5948V20.0906H49.7096Z" fill="white" stroke="#FCC10A" stroke-width="1.5" stroke-miterlimit="10" stroke-linecap="round" stroke-linejoin="round"/>
<path id="Vector_3" d="M43.166 20.0906V35.4743" stroke="#FCC10A" stroke-width="1.5" stroke-miterlimit="10" stroke-linecap="round" stroke-linejoin="round"/>
<path id="Vector_4" d="M49.71 20.0906V31.2265" stroke="#FCC10A" stroke-width="1.5" stroke-miterlimit="10" stroke-linecap="round" stroke-linejoin="round"/>
<g id="Group_4">
<path id="Vector_5" d="M54.7613 55.7946C59.1362 55.7946 62.6827 52.248 62.6827 47.8731C62.6827 43.4982 59.1362 39.9517 54.7613 39.9517C50.3864 39.9517 46.8398 43.4982 46.8398 47.8731C46.8398 52.248 50.3864 55.7946 54.7613 55.7946Z" fill="white" stroke="#FCC10A" stroke-width="1.5" stroke-miterlimit="10" stroke-linecap="round" stroke-linejoin="round"/>
<path id="Vector_6" d="M54.7612 51.6615C56.8535 51.6615 58.5497 49.9653 58.5497 47.873C58.5497 45.7806 56.8535 44.0845 54.7612 44.0845C52.6688 44.0845 50.9727 45.7806 50.9727 47.873C50.9727 49.9653 52.6688 51.6615 54.7612 51.6615Z" fill="white" stroke="#FCC10A" stroke-width="1.5" stroke-miterlimit="10" stroke-linecap="round" stroke-linejoin="round"/>
<path id="Vector_7" d="M31.6861 55.7946C36.061 55.7946 39.6075 52.248 39.6075 47.8731C39.6075 43.4982 36.061 39.9517 31.6861 39.9517C27.3112 39.9517 23.7646 43.4982 23.7646 47.8731C23.7646 52.248 27.3112 55.7946 31.6861 55.7946Z" fill="white" stroke="#FCC10A" stroke-width="1.5" stroke-miterlimit="10" stroke-linecap="round" stroke-linejoin="round"/>
<path id="Vector_8" d="M31.686 51.6615C33.7783 51.6615 35.4745 49.9653 35.4745 47.873C35.4745 45.7806 33.7783 44.0845 31.686 44.0845C29.5936 44.0845 27.8975 45.7806 27.8975 47.873C27.8975 49.9653 29.5936 51.6615 31.686 51.6615Z" stroke="#FCC10A" stroke-width="1.5" stroke-miterlimit="10" stroke-linecap="round" stroke-linejoin="round"/>
</g>
<path id="Vector_9" d="M53.2687 20.0906H34.5557" stroke="#FCC10A" stroke-width="1.5" stroke-miterlimit="10" stroke-linecap="round" stroke-linejoin="round"/>
<path id="Vector_10" d="M40.4111 31.2266L17.9096 41.6737C16.6467 42.2477 16.4171 43.5106 17.2207 44.429C17.9096 45.1178 19.0576 45.3474 20.0908 45.003L42.9368 36.7371H58.7797C60.6165 36.7371 62.2238 35.4743 62.2238 33.9818C62.2238 32.4894 60.7313 31.2266 58.7797 31.2266H40.4111Z" fill="white" stroke="#FCC10A" stroke-width="1.5" stroke-miterlimit="10" stroke-linecap="round" stroke-linejoin="round"/>
</g>
</g>
</g>
</g>
<defs>
<clipPath id="clip0_382_607">
<rect width="76" height="76" fill="white"/>
</clipPath>
</defs>
</svg>
